<svg width="28" height="28" viewBox="0 0 28 28" fill="none" xmlns="http://www.w3.org/2000/svg">
<g clip-path="url(#clip0_684_1210)">
<path d="M25.504 20.3345L21.3973 4.88787C21.1772 4.08198 20.6493 3.39485 19.9273 2.97453C19.2199 2.56983 18.3814 2.46082 17.594 2.6712L13.1957 3.83787C12.9605 3.90085 12.7363 3.99919 12.5307 4.12953C12.2398 3.73933 11.8611 3.42303 11.4254 3.20618C10.9897 2.98933 10.509 2.878 10.0223 2.8812H5.47234C4.64 2.8812 3.84175 3.21184 3.2532 3.8004C2.66465 4.38895 2.33401 5.1872 2.33401 6.01953V21.9212C2.33247 22.3343 2.41251 22.7437 2.56954 23.1258C2.72657 23.5079 2.95749 23.8552 3.24907 24.1479C3.54064 24.4405 3.88713 24.6728 4.26865 24.8312C4.65017 24.9896 5.05922 25.0712 5.47234 25.0712H10.0223C10.436 25.0712 10.8456 24.9897 11.2278 24.8314C11.61 24.6731 11.9572 24.4411 12.2497 24.1486C12.5422 23.8561 12.7743 23.5088 12.9326 23.1267C13.0909 22.7445 13.1723 22.3349 13.1723 21.9212V15.9479L15.0857 23.1112C15.1901 23.5108 15.3741 23.8852 15.6267 24.212C15.8793 24.5387 16.1953 24.8111 16.5557 25.0129C17.0305 25.2882 17.5707 25.4329 18.119 25.4329C18.3943 25.4364 18.6685 25.4049 18.9357 25.3395L23.334 24.1729C23.7343 24.0689 24.1099 23.8862 24.4388 23.6355C24.7677 23.3848 25.0434 23.0711 25.2497 22.7127C25.4561 22.3543 25.589 21.9584 25.6406 21.5481C25.6923 21.1378 25.6617 20.7212 25.5507 20.3229L25.504 20.3345ZM7.70067 20.6379C7.28254 20.6402 6.87313 20.5183 6.52433 20.2877C6.17554 20.057 5.90307 19.7281 5.74145 19.3424C5.57983 18.9568 5.53635 18.5318 5.6165 18.1214C5.69666 17.711 5.89685 17.3337 6.1917 17.0372C6.48655 16.7407 6.86279 16.5384 7.27273 16.456C7.68267 16.3736 8.10785 16.4147 8.49439 16.5742C8.88093 16.7337 9.21141 17.0043 9.44397 17.3518C9.67652 17.6993 9.80067 18.1081 9.80067 18.5262C9.79153 19.0781 9.56662 19.6046 9.17411 19.9927C8.78159 20.3809 8.25269 20.5999 7.70067 20.6029V20.6379ZM19.3673 20.5095C18.9428 20.5095 18.5277 20.3836 18.1747 20.1478C17.8217 19.9119 17.5466 19.5766 17.3841 19.1844C17.2216 18.7921 17.1791 18.3605 17.2619 17.9441C17.3448 17.5277 17.5492 17.1452 17.8494 16.8449C18.1496 16.5447 18.5321 16.3403 18.9485 16.2574C19.365 16.1746 19.7966 16.2171 20.1888 16.3796C20.5811 16.5421 20.9163 16.8172 21.1522 17.1702C21.3881 17.5233 21.514 17.9383 21.514 18.3629C21.5049 18.9221 21.2779 19.4557 20.8814 19.8501C20.4848 20.2445 19.9499 20.4685 19.3907 20.4745L19.3673 20.5095Z" fill="#6B6860"/>
</g>
<defs>
<clipPath id="clip0_684_1210">
<rect width="28" height="28" fill="white"/>
</clipPath>
</defs>
</svg>
