<svg width="28" height="28" viewBox="0 0 28 28" fill="none" xmlns="http://www.w3.org/2000/svg">
<g clip-path="url(#clip0_684_1166)">
<path d="M15.5006 14.639V15.8021C15.501 15.8867 15.4684 15.9681 15.4099 16.029C15.3513 16.09 15.2713 16.1258 15.1868 16.1288H12.7905C12.705 16.1256 12.6238 16.0901 12.5635 16.0295C12.5031 15.9689 12.4679 15.8877 12.465 15.8021V14.639C12.4583 14.5965 12.4583 14.5532 12.465 14.5106C12.4824 14.469 12.5106 14.4328 12.5466 14.4056C12.6055 14.3469 12.6852 14.3137 12.7683 14.3135H15.1985C15.24 14.3147 15.2808 14.3241 15.3186 14.3412C15.3563 14.3584 15.3903 14.3829 15.4186 14.4133C15.4468 14.4437 15.4687 14.4794 15.483 14.5183C15.4973 14.5573 15.5037 14.5987 15.5018 14.6401" fill="#6B6860"/>
<path d="M24.5033 7.7186C24.147 7.35387 23.722 7.06329 23.2528 6.86365C22.7837 6.66401 22.2796 6.55926 21.7698 6.55544H18.4564V5.03177C18.4584 4.76121 18.4058 4.49302 18.3018 4.24326C18.1977 3.99349 18.0444 3.76726 17.8509 3.5781C17.6601 3.38277 17.4322 3.22755 17.1806 3.12157C16.9289 3.01558 16.6586 2.96097 16.3856 2.96094H11.6034C11.0553 2.96431 10.5307 3.1836 10.1433 3.57126C9.75581 3.95893 9.53681 4.4837 9.53375 5.03177V6.55544H6.22975C5.20047 6.56573 4.21735 6.98407 3.49625 7.7186C3.12875 8.07302 2.83636 8.4978 2.63652 8.96763C2.43669 9.43746 2.33349 9.94271 2.33308 10.4533V12.1974C2.33071 12.47 2.38309 12.7402 2.4871 12.9921C2.59111 13.244 2.74464 13.4725 2.93858 13.6639C3.11708 13.8436 3.33058 13.9859 3.56625 14.0828L3.95008 21.9578C4.03111 22.8019 4.42407 23.5855 5.05214 24.1553C5.68021 24.7251 6.49822 25.0402 7.34625 25.0389H20.5716C21.4314 25.0506 22.2633 24.7356 22.8979 24.1558C23.5529 23.579 23.968 22.7777 24.0611 21.9099L24.4461 14.0816C24.6794 13.9824 24.8918 13.8413 25.0726 13.6639C25.4541 13.2712 25.6672 12.745 25.6664 12.1974V10.4533C25.6633 9.9433 25.5589 9.43904 25.3592 8.96978C25.1595 8.50052 24.8686 8.07445 24.5033 7.7186ZM11.2779 5.0551C11.2828 4.97038 11.3205 4.89088 11.3829 4.83344C11.41 4.80089 11.4439 4.77464 11.4822 4.7565C11.5205 4.73837 11.5622 4.72879 11.6046 4.72844H16.3611C16.4054 4.72705 16.4494 4.73579 16.4899 4.75398C16.5303 4.77218 16.5661 4.79935 16.5944 4.83344C16.6528 4.89177 16.6866 4.97227 16.6878 5.0551V6.57877H11.2534L11.2779 5.0551ZM17.2571 15.8374C17.2628 15.8644 17.2628 15.8922 17.2571 15.9191C17.2419 16.452 17.0195 16.9579 16.6371 17.3293C16.2548 17.7008 15.7427 17.9085 15.2096 17.9083H12.8133C12.279 17.9086 11.7656 17.7013 11.3814 17.3301C10.9972 16.959 10.7722 16.453 10.7541 15.9191C10.7484 15.8922 10.7484 15.8644 10.7541 15.8374V14.6743C10.7541 14.5051 10.7774 14.3359 10.8241 14.1738C10.8727 13.9457 10.9637 13.7289 11.0924 13.5344C11.1607 13.4236 11.2427 13.3217 11.3363 13.2311C11.6244 12.9488 11.9873 12.7551 12.3828 12.6734C12.5228 12.6571 12.6628 12.6571 12.8028 12.6734H15.1979C15.3379 12.6571 15.4779 12.6571 15.6168 12.6734C16.0088 12.7551 16.3681 12.9499 16.6516 13.2323C16.7449 13.3221 16.8266 13.4236 16.8966 13.5356C16.9666 13.6406 17.0249 13.7538 17.0716 13.8716C17.1778 14.1259 17.2338 14.3989 17.2338 14.6743L17.2571 15.8374Z" fill="#6B6860"/>
</g>
<defs>
<clipPath id="clip0_684_1166">
<rect width="28" height="28" fill="white"/>
</clipPath>
</defs>
</svg>
