<svg width="28" height="28" viewBox="0 0 28 28" fill="none" xmlns="http://www.w3.org/2000/svg">
<path d="M24.732 23.3743H22.1537V6.98264C22.1537 5.89349 21.721 4.84894 20.9509 4.07879C20.1807 3.30864 19.1362 2.87598 18.047 2.87598H9.95036C8.86013 2.87597 7.81438 3.30826 7.04238 4.07808C6.27038 4.8479 5.83512 5.89242 5.83203 6.98264V23.3743H3.20703C2.97497 23.3743 2.75241 23.4665 2.58831 23.6306C2.42422 23.7947 2.33203 24.0172 2.33203 24.2493C2.33203 24.4814 2.42422 24.7039 2.58831 24.868C2.75241 25.0321 2.97497 25.1243 3.20703 25.1243H24.7904C25.0224 25.1243 25.245 25.0321 25.4091 24.868C25.5732 24.7039 25.6654 24.4814 25.6654 24.2493C25.6654 24.0172 25.5732 23.7947 25.4091 23.6306C25.245 23.4665 25.0224 23.3743 24.7904 23.3743H24.732ZM15.7604 23.3743H12.1204V18.311C12.1188 18.1152 12.1942 17.9267 12.3304 17.786C12.3997 17.718 12.4818 17.6645 12.5719 17.6285C12.662 17.5924 12.7583 17.5746 12.8554 17.576H15.0137C15.1112 17.5744 15.208 17.5923 15.2986 17.6285C15.3891 17.6648 15.4715 17.7187 15.541 17.7871C15.6105 17.8555 15.6657 17.937 15.7033 18.027C15.741 18.1169 15.7604 18.2135 15.7604 18.311V23.3743ZM17.172 13.2593H10.697C10.465 13.2593 10.2424 13.1671 10.0783 13.003C9.91422 12.8389 9.82203 12.6164 9.82203 12.3843C9.82203 12.1522 9.91422 11.9297 10.0783 11.7656C10.2424 11.6015 10.465 11.5093 10.697 11.5093H17.172C17.4041 11.5093 17.6267 11.6015 17.7908 11.7656C17.9548 11.9297 18.047 12.1522 18.047 12.3843C18.047 12.6164 17.9548 12.8389 17.7908 13.003C17.6267 13.1671 17.4041 13.2593 17.172 13.2593ZM17.172 8.94264H10.697C10.465 8.94264 10.2424 8.85046 10.0783 8.68636C9.91422 8.52227 9.82203 8.29971 9.82203 8.06764C9.82203 7.83558 9.91422 7.61302 10.0783 7.44892C10.2424 7.28483 10.465 7.19264 10.697 7.19264H17.172C17.4041 7.19264 17.6267 7.28483 17.7908 7.44892C17.9548 7.61302 18.047 7.83558 18.047 8.06764C18.047 8.29971 17.9548 8.52227 17.7908 8.68636C17.6267 8.85046 17.4041 8.94264 17.172 8.94264Z" fill="#6B6860"/>
</svg>
