<svg width="28" height="28" viewBox="0 0 28 28" fill="none" xmlns="http://www.w3.org/2000/svg">
<path d="M18.4718 2.33303H11.2887C9.51413 2.33445 7.80906 3.02287 6.53101 4.25395C5.25295 5.48502 4.50118 7.16313 4.43333 8.93636H3.5C3.26794 8.93636 3.04538 9.02855 2.88128 9.19265C2.71719 9.35674 2.625 9.5793 2.625 9.81136C2.625 10.0434 2.71719 10.266 2.88128 10.4301C3.04538 10.5942 3.26794 10.6864 3.5 10.6864H4.42167V17.3247H3.535C3.30294 17.3247 3.08038 17.4169 2.91628 17.581C2.75219 17.7451 2.66 17.9676 2.66 18.1997C2.66 18.4318 2.75219 18.6543 2.91628 18.8184C3.08038 18.9825 3.30294 19.0747 3.535 19.0747H4.46833C4.53797 20.8463 5.29068 22.5221 6.56867 23.751C7.84667 24.9798 9.55073 25.6662 11.3237 25.6664H18.5068C19.4091 25.6665 20.3026 25.4889 21.1362 25.1435C21.9697 24.7982 22.7271 24.292 23.3649 23.6538C24.0028 23.0157 24.5086 22.258 24.8535 21.4243C25.1984 20.5905 25.3756 19.697 25.375 18.7947V9.2047C25.3732 8.30016 25.1931 7.40485 24.8452 6.56992C24.4972 5.73499 23.9882 4.97679 23.3471 4.33865C22.706 3.70051 21.9455 3.19493 21.109 2.8508C20.2725 2.50667 19.3764 2.33073 18.4718 2.33303ZM15.3463 6.91803C15.8815 6.91771 16.41 7.03625 16.8937 7.2651C17.3774 7.49395 17.8043 7.82738 18.1434 8.24132C18.4825 8.65525 18.7255 9.13935 18.8547 9.65863C18.984 10.1779 18.9962 10.7194 18.8907 11.244C18.7856 11.7684 18.5655 12.2629 18.2463 12.6919C17.9271 13.121 17.5167 13.4739 17.0447 13.7253C16.5728 13.9767 16.0509 14.1203 15.5167 14.1457C14.9826 14.1712 14.4494 14.0779 13.9557 13.8725C13.4067 13.6439 12.9226 13.2834 12.5463 12.823C12.17 12.3625 11.913 11.8164 11.7982 11.2329C11.6834 10.6494 11.7143 10.0466 11.8881 9.47796C12.062 8.90928 12.3734 8.39225 12.7948 7.9727C13.4722 7.29725 14.3898 6.91797 15.3463 6.91803ZM19.4285 20.4164C19.1964 20.4164 18.9739 20.3242 18.8098 20.1601C18.6457 19.996 18.5535 19.7734 18.5535 19.5414C18.5535 18.1297 16.7918 16.9164 15.3463 16.9164C13.9008 16.9164 12.152 18.083 12.152 19.5414C12.152 19.7734 12.0598 19.996 11.8957 20.1601C11.7316 20.3242 11.5091 20.4164 11.277 20.4164C11.0449 20.4164 10.8224 20.3242 10.6583 20.1601C10.4942 19.996 10.402 19.7734 10.402 19.5414C10.402 17.033 13.0153 15.1664 15.3463 15.1664C17.6797 15.1664 20.3023 17.033 20.3023 19.5414C20.2993 19.7725 20.2062 19.9933 20.0427 20.1567C19.8793 20.3202 19.6596 20.4133 19.4285 20.4164Z" fill="#6B6860"/>
<path d="M17.2129 10.523C17.216 11.0181 17.0223 11.4941 16.6744 11.8464C16.3265 12.1986 15.8529 12.3982 15.3579 12.4013C14.8628 12.4044 14.3868 12.2107 14.0345 11.8629C13.6823 11.515 13.4826 11.0414 13.4795 10.5463C13.4764 10.0513 13.6701 9.57524 14.018 9.22299C14.3659 8.87073 14.8395 8.6711 15.3345 8.66801C15.8296 8.66491 16.3056 8.85861 16.6579 9.20649C17.0101 9.55437 17.2098 10.0279 17.2129 10.523Z" fill="#6B6860"/>
</svg>
