<svg width="28" height="28" viewBox="0 0 28 28" fill="none" xmlns="http://www.w3.org/2000/svg">
<g clip-path="url(#clip0_684_1199)">
<path d="M24.1267 8.18325C23.8676 7.64185 23.5026 7.15788 23.0533 6.75991L19.5533 3.58658C18.783 2.88046 17.8048 2.44254 16.765 2.33825H9.57833C8.80549 2.30547 8.03384 2.42674 7.3083 2.69499C6.58276 2.96324 5.91781 3.37312 5.35217 3.90076C4.78652 4.42841 4.33147 5.06329 4.01349 5.76846C3.69551 6.47362 3.52096 7.23499 3.5 8.00825V20.0249C3.54127 21.191 3.93131 22.318 4.61971 23.2601C5.30811 24.2022 6.26324 24.9163 7.36167 25.3099C8.07613 25.5801 8.83884 25.6993 9.60167 25.6599H18.4217C19.1946 25.693 19.9664 25.572 20.6921 25.3038C21.4177 25.0357 22.0828 24.6258 22.6485 24.0981C23.2142 23.5704 23.6693 22.9354 23.9871 22.2301C24.305 21.5248 24.4793 20.7633 24.5 19.9899V9.99158C24.5056 9.36911 24.3783 8.7526 24.1267 8.18325ZM8.96 7.71658H12.7633C13.0728 7.71658 13.3695 7.8395 13.5883 8.05829C13.8071 8.27708 13.93 8.57383 13.93 8.88325C13.93 9.19266 13.8071 9.48941 13.5883 9.7082C13.3695 9.927 13.0728 10.0499 12.7633 10.0499H8.96C8.65058 10.0499 8.35384 9.927 8.13504 9.7082C7.91625 9.48941 7.79333 9.19266 7.79333 8.88325C7.79333 8.57383 7.91625 8.27708 8.13504 8.05829C8.35384 7.8395 8.65058 7.71658 8.96 7.71658ZM19.11 20.2116H8.96C8.65058 20.2116 8.35384 20.0887 8.13504 19.8699C7.91625 19.6511 7.79333 19.3543 7.79333 19.0449C7.79333 18.7355 7.91625 18.4387 8.13504 18.22C8.35384 18.0012 8.65058 17.8782 8.96 17.8782H19.11C19.3881 17.9179 19.6426 18.0565 19.8267 18.2687C20.0107 18.4809 20.1121 18.7523 20.1121 19.0332C20.1121 19.3142 20.0107 19.5856 19.8267 19.7978C19.6426 20.01 19.3881 20.1486 19.11 20.1882V20.2116ZM19.11 15.1366H8.96C8.65058 15.1366 8.35384 15.0137 8.13504 14.7949C7.91625 14.5761 7.79333 14.2793 7.79333 13.9699C7.79333 13.6605 7.91625 13.3637 8.13504 13.145C8.35384 12.9262 8.65058 12.8032 8.96 12.8032H19.11C19.4194 12.8032 19.7162 12.9262 19.935 13.145C20.1538 13.3637 20.2767 13.6605 20.2767 13.9699C20.2767 14.2793 20.1538 14.5761 19.935 14.7949C19.7162 15.0137 19.4194 15.1366 19.11 15.1366ZM18.7367 8.63825C18.5702 8.63979 18.4051 8.60833 18.2509 8.5457C18.0967 8.48307 17.9564 8.39051 17.8382 8.27335C17.7199 8.1562 17.6261 8.01677 17.562 7.86314C17.498 7.7095 17.465 7.5447 17.465 7.37825V4.28658C18.235 4.47325 21.2333 7.55325 21.8867 8.06658C22.0799 8.22935 22.2454 8.42242 22.3767 8.63825H18.7367Z" fill="#6B6860"/>
</g>
<defs>
<clipPath id="clip0_684_1199">
<rect width="28" height="28" fill="white"/>
</clipPath>
</defs>
</svg>
