<svg width="28" height="28" viewBox="0 0 28 28" fill="none" xmlns="http://www.w3.org/2000/svg">
<g clip-path="url(#clip0_684_1219)">
<path d="M23.9982 3.98974C23.4724 3.4614 22.8468 3.04285 22.1578 2.75845C21.4689 2.47404 20.7302 2.32945 19.9848 2.33307H8.03816C6.53533 2.33616 5.09494 2.93452 4.03227 3.99718C2.96961 5.05985 2.37125 6.50024 2.36816 8.00308V19.9847C2.37123 21.4887 2.96922 22.9303 4.03156 23.9948C5.09389 25.0593 6.53426 25.6602 8.03816 25.6664H15.4465C15.8782 25.6629 16.3063 25.5754 16.7065 25.4097L16.8932 25.3164L16.9865 25.2581C17.2769 25.1171 17.5412 24.9277 17.7682 24.6981L24.7682 17.6981C25.005 17.4647 25.2022 17.1917 25.3515 16.8931L25.4448 16.6947C25.4495 16.6481 25.5183 16.5547 25.5137 16.5081C25.6385 16.1627 25.6327 15.8477 25.6303 15.4814V8.08474C25.648 7.32734 25.5124 6.57419 25.2317 5.8705C24.951 5.16681 24.5322 4.52709 23.9982 3.98974ZM11.5965 19.6697H7.9915C7.75943 19.6697 7.53687 19.5776 7.37278 19.4135C7.20868 19.2494 7.1165 19.0268 7.1165 18.7947C7.1165 18.5627 7.20868 18.3401 7.37278 18.176C7.53687 18.0119 7.75943 17.9197 7.9915 17.9197H11.5965C11.8286 17.9197 12.0511 18.0119 12.2152 18.176C12.3793 18.3401 12.4715 18.5627 12.4715 18.7947C12.4715 19.0268 12.3793 19.2494 12.2152 19.4135C12.0511 19.5776 11.8286 19.6697 11.5965 19.6697ZM12.7632 14.8747H7.9565C7.72443 14.8747 7.50187 14.7826 7.33778 14.6185C7.17369 14.4544 7.0815 14.2318 7.0815 13.9997C7.0815 13.7677 7.17369 13.5451 7.33778 13.381C7.50187 13.2169 7.72443 13.1247 7.9565 13.1247H12.7632C12.9952 13.1247 13.2178 13.2169 13.3819 13.381C13.546 13.5451 13.6382 13.7677 13.6382 13.9997C13.6382 14.2318 13.546 14.4544 13.3819 14.6185C13.2178 14.7826 12.9952 14.8747 12.7632 14.8747ZM7.9565 10.0681C7.72443 10.0681 7.50187 9.97589 7.33778 9.81179C7.17369 9.6477 7.0815 9.42514 7.0815 9.19308C7.0815 8.96101 7.17369 8.73845 7.33778 8.57436C7.50187 8.41026 7.72443 8.31808 7.9565 8.31808H18.7482C18.9802 8.31808 19.2028 8.41026 19.3669 8.57436C19.531 8.73845 19.6232 8.96101 19.6232 9.19308C19.6232 9.42514 19.531 9.6477 19.3669 9.81179C19.2028 9.97589 18.9802 10.0681 18.7482 10.0681H7.9565ZM17.0215 22.9014L16.6248 19.6931C16.5796 19.2995 16.6235 18.9008 16.7532 18.5264C16.8813 18.1341 17.1013 17.7781 17.3948 17.4881C17.6886 17.1908 18.0484 16.967 18.4448 16.8347C18.8379 16.6984 19.2571 16.6545 19.6698 16.7064L22.8782 17.1031L17.0215 22.9014Z" fill="#6B6860"/>
</g>
<defs>
<clipPath id="clip0_684_1219">
<rect width="28" height="28" fill="white"/>
</clipPath>
</defs>
</svg>
