<svg width="28" height="28" viewBox="0 0 28 28" fill="none" xmlns="http://www.w3.org/2000/svg">
<path d="M25.6513 21.8512C25.5976 22.208 25.4618 22.5474 25.2546 22.8429C25.0485 23.1332 24.7755 23.3695 24.4587 23.532C24.1419 23.6945 23.7906 23.7782 23.4346 23.7762H21.5085C21.3715 23.7757 21.2366 23.7426 21.1149 23.6798C20.9931 23.6169 20.8881 23.526 20.8085 23.4145C20.7278 23.3032 20.6741 23.1746 20.6519 23.0389C20.6296 22.9032 20.6393 22.7642 20.6801 22.6329C21.1118 21.2562 21.0185 19.7045 17.109 17.2195C16.9496 17.1152 16.8276 16.9629 16.7605 16.7846C16.6934 16.6064 16.6847 16.4114 16.7356 16.2279C16.7903 16.0471 16.9012 15.8885 17.0523 15.7752C17.2034 15.6618 17.3868 15.5997 17.5756 15.5979C19.2441 15.6211 20.8724 16.1139 22.2738 17.0197C23.6753 17.9255 24.7932 19.2077 25.4996 20.7195C25.6431 21.0784 25.6952 21.4672 25.6513 21.8512ZM22.7335 8.98287C22.7304 10.3498 22.1859 11.6598 21.2193 12.6262C20.2526 13.5926 18.9425 14.1368 17.5756 14.1395C17.4226 14.1364 17.273 14.0938 17.1413 14.0159C17.0097 13.9379 16.9004 13.8272 16.8241 13.6946C16.7478 13.5619 16.707 13.4118 16.7059 13.2588C16.7047 13.1058 16.7431 12.955 16.8173 12.8212C17.5315 11.6791 17.9102 10.3591 17.9102 9.01203C17.9102 7.66496 17.5315 6.34501 16.8173 5.20287C16.7258 5.0721 16.6718 4.91879 16.6611 4.75954C16.6505 4.60028 16.6836 4.44115 16.7569 4.29937C16.8302 4.15758 16.9409 4.03855 17.077 3.95515C17.213 3.87175 17.3693 3.82715 17.529 3.8262C18.2121 3.82391 18.8884 3.96142 19.5164 4.23028C20.1444 4.49913 20.7108 4.89364 21.1806 5.38953C22.1403 6.35859 22.6812 7.6657 22.6868 9.02953L22.7335 8.98287Z" fill="#6B6860"/>
<path d="M19.4542 21.8165C19.5015 22.3877 19.3891 22.9608 19.1295 23.4717C18.8699 23.9826 18.4734 24.4113 17.9842 24.7099C17.4965 25.0097 16.9342 25.1672 16.3625 25.1649H5.42734C4.85493 25.1674 4.29323 25.0098 3.80567 24.7099C3.31545 24.413 2.91855 23.9843 2.66028 23.4727C2.40201 22.9612 2.29276 22.3873 2.34501 21.8165C2.38857 21.2474 2.59064 20.7018 2.92834 20.2415C3.85806 19.0034 5.05602 17.9918 6.43238 17.2826C7.80875 16.5734 9.32781 16.185 10.8757 16.1465C12.4288 16.1769 13.9547 16.5604 15.3376 17.2679C16.7206 17.9753 17.9245 18.9882 18.858 20.2299C19.1975 20.6945 19.4045 21.2432 19.4542 21.8165ZM16.6192 8.53988C16.6161 10.0566 16.0129 11.5104 14.9413 12.5837C13.8697 13.6571 12.4169 14.2627 10.9002 14.2682C10.0557 14.2661 9.22219 14.0771 8.45944 13.7147C7.69669 13.3523 7.02365 12.8255 6.48863 12.1721C5.95361 11.5188 5.56989 10.7551 5.36501 9.93584C5.16013 9.1166 5.13919 8.26217 5.30367 7.43388C5.46885 6.60538 5.8156 5.82379 6.31898 5.14534C6.82236 4.46688 7.46985 3.90843 8.21487 3.51015C8.95989 3.11186 9.78393 2.88365 10.6277 2.84194C11.4715 2.80022 12.314 2.94603 13.0947 3.26887C14.1385 3.7002 15.0313 4.43097 15.6604 5.36902C16.2895 6.30707 16.6268 7.4104 16.6297 8.53988H16.6192Z" fill="#6B6860"/>
</svg>
