<svg width="28" height="28" viewBox="0 0 28 28" fill="none" xmlns="http://www.w3.org/2000/svg">
<g clip-path="url(#clip0_684_1177)">
<path d="M24.4467 10.2718V12.8501C24.4467 13.0822 24.3545 13.3048 24.1904 13.4689C24.0263 13.633 23.8037 13.7251 23.5717 13.7251C23.3396 13.7251 23.117 13.633 22.9529 13.4689C22.7888 13.3048 22.6967 13.0822 22.6967 12.8501V10.2718C22.7041 9.96921 22.6526 9.66805 22.545 9.38514L14.0283 14.4951V24.0501C14.1625 24.0105 14.292 23.9556 14.4133 23.8868L17.365 22.2535C17.5654 22.1479 17.799 22.1241 18.0166 22.1872C18.2342 22.2503 18.4188 22.3954 18.5317 22.5918C18.6363 22.7936 18.6583 23.0283 18.593 23.246C18.5277 23.4638 18.3801 23.6476 18.1817 23.7585L15.2417 25.3918C14.5959 25.7514 13.8691 25.9402 13.13 25.9402C12.3909 25.9402 11.664 25.7514 11.0183 25.3918L4.01832 21.5418C3.3428 21.1586 2.78012 20.6043 2.3869 19.9346C1.99367 19.2649 1.78377 18.5034 1.77832 17.7268V10.2718C1.77832 9.49131 1.98832 8.72598 2.38499 8.05514C2.45265 7.93498 2.53082 7.82181 2.61832 7.71681C2.65926 7.65412 2.70615 7.59552 2.75832 7.54181C3.09822 7.09639 3.52738 6.72684 4.01832 6.45681L11.0183 2.59514C11.6671 2.2449 12.3927 2.06152 13.13 2.06152C13.8672 2.06152 14.5929 2.2449 15.2417 2.59514L22.2417 6.45681C22.7328 6.72631 23.1622 7.09614 23.5017 7.54181L23.6417 7.71681C23.7303 7.82181 23.8085 7.93498 23.875 8.05514C24.2649 8.72777 24.4626 9.49452 24.4467 10.2718Z" fill="#6B6860"/>
<path d="M21.6117 21.3083C21.4162 21.3096 21.2222 21.274 21.04 21.2033C20.8569 21.1222 20.6907 21.0074 20.55 20.865L18.9167 19.2316C18.8337 19.1514 18.7677 19.0554 18.7226 18.9491C18.6775 18.8429 18.6543 18.7287 18.6543 18.6133C18.6543 18.4979 18.6775 18.3837 18.7226 18.2775C18.7677 18.1712 18.8337 18.0752 18.9167 17.995C19.0807 17.8311 19.3031 17.7391 19.535 17.7391C19.7669 17.7391 19.9893 17.8311 20.1533 17.995L21.6117 19.4533L24.75 16.3266C24.9159 16.1721 25.1352 16.0879 25.3619 16.0919C25.5886 16.0959 25.8049 16.1878 25.9652 16.3481C26.1255 16.5084 26.2174 16.7247 26.2214 16.9514C26.2254 17.178 26.1412 17.3974 25.9867 17.5633L22.6733 20.8766C22.5368 21.0129 22.3741 21.1201 22.195 21.1916C22.0107 21.2705 21.8121 21.3102 21.6117 21.3083Z" fill="#6B6860"/>
</g>
<defs>
<clipPath id="clip0_684_1177">
<rect width="28" height="28" fill="white"/>
</clipPath>
</defs>
</svg>
