<svg width="23" height="23" viewBox="0 0 23 23" fill="none" xmlns="http://www.w3.org/2000/svg">
<path d="M10.2084 2.835V7.36167C10.2074 7.92544 10.0398 8.47635 9.72653 8.94509C9.41328 9.41383 8.9684 9.77946 8.44787 9.996C8.10346 10.1381 7.73425 10.2102 7.3617 10.2083H2.83503C2.08207 10.2052 1.36101 9.90397 0.829674 9.37045C0.298341 8.83693 2.69659e-05 8.11463 3.32895e-05 7.36167V2.84667C2.69659e-05 2.0937 0.298341 1.3714 0.829674 0.837883C1.36101 0.304364 2.08207 0.00308593 2.83503 1.00534e-10H7.3617C8.11467 -6.32354e-06 8.83696 0.298308 9.37048 0.82964C9.904 1.36097 10.2053 2.08204 10.2084 2.835ZM22.75 2.84667V7.36167C22.7518 7.73435 22.6796 8.10368 22.5373 8.44817C22.3951 8.79266 22.1859 9.10544 21.9217 9.36833C21.6611 9.63632 21.349 9.84887 21.0041 9.99322C20.6593 10.1376 20.2889 10.2107 19.915 10.2083H15.3884C14.8259 10.2076 14.2762 10.041 13.808 9.72925C13.3398 9.41755 12.974 8.97464 12.7564 8.456C12.6122 8.10931 12.5392 7.73715 12.5417 7.36167V2.84667C12.5402 2.47298 12.6137 2.10279 12.758 1.75807C12.9023 1.41336 13.1144 1.10116 13.3817 0.84C13.644 0.574243 13.9564 0.363161 14.3009 0.218974C14.6453 0.0747864 15.015 0.000358768 15.3884 1.00534e-10H19.915C20.668 0.00308593 21.3891 0.304364 21.9204 0.837883C22.4517 1.3714 22.75 2.0937 22.75 2.84667ZM10.2084 15.4V19.915C10.2053 20.668 9.904 21.389 9.37048 21.9204C8.83696 22.4517 8.11467 22.75 7.3617 22.75H2.83503C2.08324 22.7485 1.36229 22.4509 0.828367 21.9217C0.564195 21.6588 0.354923 21.346 0.21272 21.0015C0.0705166 20.657 -0.00178019 20.2877 3.32895e-05 19.915V15.4C-0.00178019 15.0273 0.0705166 14.658 0.21272 14.3135C0.354923 13.969 0.564195 13.6562 0.828367 13.3933C1.35993 12.8576 2.08043 12.5518 2.83503 12.5417H7.3617C8.11681 12.5478 8.83907 12.8513 9.37193 13.3863C9.9048 13.9214 10.2053 14.6449 10.2084 15.4ZM22.75 17.6517C22.7477 18.659 22.447 19.6431 21.886 20.4797C21.3249 21.3164 20.5285 21.968 19.5974 22.3525C18.6662 22.7369 17.6421 22.8369 16.6542 22.6398C15.6663 22.4427 14.759 21.9574 14.0466 21.2451C13.3343 20.5327 12.849 19.6254 12.6519 18.6375C12.4548 17.6496 12.5548 16.6255 12.9392 15.6943C13.3237 14.7632 13.9753 13.9668 14.812 13.4058C15.6486 12.8447 16.6327 12.544 17.64 12.5417C18.6509 12.5445 19.6384 12.8457 20.4788 13.4075C21.3191 13.9694 21.9749 14.7668 22.3639 15.6998C22.6205 16.3182 22.7512 16.982 22.75 17.6517Z" fill="#6B6860"/>
</svg>
