<svg width="1066" height="290" viewBox="0 0 1066 290" fill="none" xmlns="http://www.w3.org/2000/svg">
<path d="M1049.01 215.82C1049.01 209.564 1046.8 204.655 1042.37 201.092C1038.02 197.53 1031.37 195.749 1022.43 195.749C1017.65 195.749 1012.69 196.357 1007.57 197.573C1002.44 198.79 997.532 200.788 992.84 203.569V190.405C997.966 187.538 1003.22 185.453 1008.61 184.149C1014.08 182.846 1019.91 182.194 1026.07 182.194C1034.07 182.194 1041.02 183.454 1046.93 185.974C1052.92 188.494 1057.57 192.23 1060.87 197.182C1064.26 202.135 1065.96 208.304 1065.96 215.689V257.786H1049.14L1049.01 215.82ZM1018.52 209.824C1029.38 209.477 1037.89 210.215 1044.06 212.04C1050.32 213.865 1053.75 215.342 1054.36 216.471C1054.96 217.514 1055.27 223.553 1055.27 234.587C1055.27 236.759 1054.4 239.279 1052.66 242.146C1050.92 245.014 1048.45 247.794 1045.23 250.488C1042.02 253.094 1038.15 255.266 1033.63 257.004C1029.12 258.742 1024.08 259.611 1018.52 259.611C1012.43 259.611 1006.96 258.611 1002.09 256.613C997.315 254.615 993.535 251.747 990.755 248.011C987.974 244.275 986.584 239.844 986.584 234.718C986.584 229.591 987.974 225.203 990.755 221.554C993.622 217.818 997.445 214.994 1002.22 213.083C1007.09 211.084 1012.52 209.998 1018.52 209.824ZM1028.81 222.466C1019.25 222.466 1012.69 223.596 1009.13 225.855C1005.57 228.027 1003.79 230.894 1003.79 234.457C1003.79 238.019 1005.53 240.93 1009 243.189C1012.56 245.361 1017.47 246.447 1023.73 246.447C1031.11 246.447 1037.15 244.362 1041.84 240.191C1046.62 235.934 1049.01 231.068 1049.01 225.594C1045.19 223.509 1038.46 222.466 1028.81 222.466Z" fill="white"/>
<path d="M903.543 257.786V184.019H920.486V257.786H903.543ZM964.277 257.786L931.956 220.12L962.453 184.019H982.393L951.244 219.86L984.739 257.786H964.277ZM913.058 213.865H947.204V226.898H913.058V213.865Z" fill="white"/>
<path d="M801.595 257.786V184.019H818.278V249.314L813.195 248.142L863.633 184.019H885.528V257.786H868.846V191.578L874.059 192.881L822.97 257.786H801.595Z" fill="white"/>
<path d="M743.341 189.884H760.284V257.786H743.341V189.884ZM712.713 184.019H790.911V197.313H712.713V184.019Z" fill="white"/>
<path d="M710.339 228.722C709.47 234.804 707.08 240.191 703.17 244.883C699.261 249.488 694.265 253.094 688.182 255.701C682.1 258.307 675.323 259.611 667.851 259.611C659.336 259.611 651.82 258.003 645.304 254.788C638.874 251.487 633.835 246.925 630.185 241.104C626.536 235.282 624.712 228.549 624.712 220.902C624.712 213.256 626.536 206.523 630.185 200.701C633.835 194.88 638.874 190.362 645.304 187.147C651.82 183.845 659.336 182.194 667.851 182.194C675.323 182.194 682.1 183.498 688.182 186.104C694.265 188.711 699.261 192.36 703.17 197.052C707.08 201.657 709.47 207.044 710.339 213.213H693.265C692.049 207.652 689.138 203.308 684.533 200.18C679.928 197.052 674.367 195.488 667.851 195.488C662.638 195.488 658.076 196.531 654.166 198.616C650.256 200.614 647.215 203.525 645.043 207.348C642.958 211.084 641.915 215.602 641.915 220.902C641.915 226.116 642.958 230.634 645.043 234.457C647.215 238.28 650.256 241.234 654.166 243.319C658.076 245.318 662.638 246.317 667.851 246.317C674.454 246.317 680.059 244.71 684.664 241.495C689.269 238.28 692.136 234.022 693.265 228.722H710.339Z" fill="white"/>
<path d="M576.625 259.611C568.023 259.611 560.377 258.003 553.687 254.788C546.996 251.487 541.74 246.925 537.917 241.104C534.094 235.282 532.182 228.505 532.182 220.772C532.182 213.126 533.963 206.436 537.526 200.701C541.175 194.88 546.171 190.362 552.514 187.147C558.943 183.845 566.285 182.194 574.539 182.194C582.794 182.194 589.918 184.062 595.914 187.799C601.996 191.448 606.688 196.618 609.989 203.308C613.291 209.998 614.942 217.861 614.942 226.898H545.476V213.995H606.47L597.999 218.817C597.738 213.952 596.565 209.781 594.48 206.305C592.482 202.83 589.745 200.18 586.269 198.355C582.881 196.444 578.84 195.488 574.148 195.488C569.196 195.488 564.851 196.487 561.115 198.486C557.466 200.484 554.599 203.308 552.514 206.957C550.428 210.519 549.386 214.777 549.386 219.73C549.386 225.203 550.602 229.939 553.035 233.936C555.555 237.932 559.074 241.017 563.592 243.189C568.197 245.274 573.627 246.317 579.883 246.317C585.531 246.317 591.309 245.448 597.217 243.71C603.125 241.886 608.338 239.366 612.857 236.151V248.402C608.338 251.878 602.821 254.615 596.305 256.613C589.875 258.611 583.315 259.611 576.625 259.611Z" fill="white"/>
<path d="M441.747 257.786V220.902V184.019H495.182C502.307 184.019 507.868 185.67 511.865 188.971C515.948 192.273 517.99 196.835 517.99 202.656C517.99 208.043 515.948 212.388 511.865 215.689C507.868 218.904 502.264 220.816 495.052 221.424L496.355 218.296C504.87 218.47 511.387 220.207 515.905 223.509C520.423 226.811 522.682 231.459 522.682 237.454C522.682 243.797 520.38 248.793 515.775 252.442C511.257 256.005 504.957 257.786 496.877 257.786H441.747ZM458.169 253.615L451.652 246.056H492.576C497.181 246.056 500.483 245.187 502.481 243.45C504.566 241.625 505.609 239.105 505.609 235.89C505.609 233.023 504.436 230.634 502.09 228.722C499.831 226.811 496.008 225.855 490.621 225.855H451.652V214.907H488.145C492.576 214.907 495.791 214.038 497.789 212.301C499.874 210.476 500.917 208.13 500.917 205.263C500.917 202.482 500.005 200.223 498.18 198.486C496.442 196.661 493.488 195.749 489.318 195.749H451.782L458.169 188.32V220.902V253.615Z" fill="white"/>
<path d="M345.948 184.019H362.761V257.786H345.948V184.019ZM408.637 184.019H425.45V257.786H408.637V184.019ZM355.462 213.865H415.675V226.898H355.462V213.865Z" fill="white"/>
<path d="M244 257.786V184.019H260.682V249.314L255.599 248.142L306.037 184.019H327.933V257.786H311.251V191.578L316.464 192.881L265.374 257.786H244Z" fill="white"/>
<path d="M63.306 131.888C69.6023 133.007 75.9632 133.723 82.3505 134.034C73.6192 132.41 65.024 130.125 56.6389 127.199C39.4606 120.931 22.729 109.933 12.1939 94.7963C6.62477 87.6856 2.62152 79.478 0.44668 70.7117C0.0926903 74.3183 -0.0511037 77.9424 0.0160272 81.5657C0.0160272 82.8178 0.0160272 84.0539 0.0878027 85.2821C0.239329 85.633 0.406805 86.0796 0.582256 86.5023C10.5431 112.31 37.2914 127.055 63.306 131.888Z" fill="url(#paint0_linear_451_748)"/>
<path d="M17.5604 47.1774C20.9714 56.3365 26.1162 64.7522 32.713 71.9638C41.3261 81.0474 50.5293 87.3158 63.7679 93.1934C70.2516 96.0804 75.555 97.8588 84.9735 99.8366C74.917 95.9847 69.7412 93.2732 63.4409 89.1102C51.3587 81.1351 43.3198 73.4233 36.3257 63.0397C31.0203 54.8322 27.3435 45.6807 25.4956 36.0841C23.7411 26.0833 24.305 11.0504 27.2478 2.62871C27.5963 1.79493 27.8204 0.939944 28.2789 0.00491767C28.1114 -0.106733 26.1495 1.69563 23.9085 4.10409C19.9457 7.98705 16.5278 12.3895 13.7483 17.1912C13.0306 26.0913 14.5618 38.7318 17.5604 47.1774Z" fill="#0A0B6A"/>
<path d="M188.737 196C179.271 159.251 137.641 152.026 105.342 155.479C100.509 155.997 95.6604 156.667 90.7957 157.257C91.9122 157.305 93.0366 157.361 94.1452 157.433C126.572 159.379 166.431 173.383 169.677 211.2C170.207 217.66 169.472 224.161 167.516 230.341C164.621 239.584 158.281 249.696 150.513 257.352C146.796 261.013 146.637 261.228 148.766 260.08C153.416 257.456 162.818 249.911 169.653 243.332C178.075 235.15 184.383 227.501 188.921 219.782C189.272 218.258 189.567 216.743 189.766 215.268C190.682 208.839 190.332 202.294 188.737 196Z" fill="url(#paint1_linear_451_748)"/>
<path d="M13.772 17.191C13.0542 26.0911 14.5854 38.7318 17.5601 47.1774C20.9711 56.3365 26.1156 64.7529 32.7124 71.9645C41.2935 81.048 50.4973 87.3164 63.7358 93.194C70.1955 96.0808 75.523 97.8588 84.9653 99.8365C90.492 101.95 97.494 104.406 106.968 107.644C152.777 123.172 155.433 124.265 168.193 132.686C177.3 138.747 187.636 150.175 192.118 159.195C197.254 169.586 199.495 185.218 197.469 196.678C196.045 204.811 193.144 212.613 188.912 219.702C189.263 218.179 189.558 216.663 189.757 215.188C190.666 208.778 190.317 202.252 188.729 195.976C179.263 159.227 137.632 152.002 105.333 155.455C100.501 155.973 95.6514 156.643 90.7866 157.233C78.242 156.651 65.474 156.691 53.3042 153.246C40.9441 149.748 29.6778 143.161 20.5669 134.106C7.76704 121.187 0.812248 104.622 0.0864258 85.2828C0.237915 85.6337 0.406145 86.0402 0.581543 86.5026C10.5424 112.31 37.2908 127.056 63.3452 131.921C69.2477 132.969 75.2073 133.664 81.1919 134.003L82.3892 134.066L83.7231 134.138C90.3877 134.479 97.022 134.531 103.691 134.696C103.808 134.732 103.926 134.767 104.043 134.803C103.928 134.768 103.814 134.731 103.699 134.696C95.8904 132.217 87.9724 130.02 80.1235 127.717C80.0813 127.712 80.0388 127.707 79.9966 127.702C76.8066 126.761 73.6162 125.803 70.4263 124.798C66.6941 123.618 62.9937 122.35 59.3413 120.947C28.2944 109.008 2.90973 83.2965 4.63232 48.0309C5.01863 38.2781 7.5978 28.7372 12.1772 20.1178C12.7115 19.0892 13.2377 18.124 13.772 17.191Z" fill="url(#paint2_linear_451_748)"/>
<path d="M58.5178 63.2064C54.597 57.0307 52.8063 52.0566 51.6232 43.8424C49.8287 31.422 51.8439 22.133 59.0291 11.1653C59.0263 11.0936 59.0251 11.0617 59.0251 11.0617C57.5089 12.4598 56.0694 13.9388 54.7129 15.4923C45.3615 25.7625 42.1205 34.1178 42.6022 46.4378C42.8864 53.7055 43.988 58.2037 46.8385 63.9504C51.7078 73.7684 59.8029 80.5631 74.9546 87.5927C81.4578 90.6187 117.916 104.517 118.334 104.166C118.751 103.814 116.869 100.4 114.433 96.8796C113.08 94.929 111.536 93.1178 109.824 91.473C102.32 89.3721 95.8559 87.5577 93.2834 86.6766C75.2051 80.5276 65.2201 73.7748 58.5178 63.2064Z" fill="url(#paint3_linear_451_748)"/>
<path d="M91.9429 78.9233C83.4158 73.3267 75.5012 66.6606 69.2302 58.5495C60.3937 47.0829 53.3697 30.1497 57.661 15.5919C58.1403 14.1428 58.5625 12.6306 59.0293 11.1652C51.8441 22.1329 49.8289 31.4219 51.6234 43.8422C52.8065 52.0565 54.5972 57.0305 58.518 63.2063C65.2123 73.775 75.2054 80.5274 93.2441 86.6859C95.8165 87.5671 102.282 89.4213 109.785 91.4824C104.552 86.4354 98.1603 83.006 91.9429 78.9233Z" fill="url(#paint4_linear_451_748)"/>
<path d="M163.505 212.548C162.627 204.9 161.535 200.904 158.584 194.787C151.255 179.635 135.568 168.765 115.519 164.992C91.6734 160.495 66.1133 165.447 43.201 156.164C32.7591 152.054 23.6296 145.185 16.7876 136.29C14.9853 133.898 14.073 132.893 13.8565 132.676C13.8565 132.732 13.9249 132.897 13.9648 133.001C14.4512 133.687 15.073 134.751 15.8864 136.083C21.8703 145.575 30.3185 153.266 40.33 158.333C62.2773 169.706 88.1803 167.154 111.515 173.853C131.086 179.475 145.696 191.765 151.574 207.523C153.966 213.903 154.66 217.971 154.82 225.675C155.083 238.977 150.099 251.195 140.624 261.267C157.42 248.132 165.61 230.93 163.505 212.548Z" fill="url(#paint5_linear_451_748)"/>
<path d="M151.638 207.524C145.76 191.765 131.15 179.476 111.579 173.853C88.2521 167.154 62.3412 169.706 40.3939 158.334C30.3882 153.264 21.9458 145.574 15.9663 136.084C15.1688 134.752 14.4513 133.719 13.9648 133.001C14.2041 133.703 14.7461 135.446 15.3362 137.224C20.2489 151.962 30.7839 164.339 43.8471 172.609C58.6168 181.916 74.551 183.83 91.6256 184.572C93.093 184.644 94.5604 184.699 96.0278 184.779C102.902 185.122 109.817 185.68 116.476 187.443C134.515 192.228 148.687 207.684 146.949 227.039C145.625 241.809 136.621 254.489 126.532 264.761C123.774 267.581 120.844 270.229 117.76 272.688C115.902 273.996 114.426 275.145 114.57 275.256C114.953 275.695 126.652 270.471 130.807 267.983C134.257 265.972 137.566 263.728 140.712 261.268C150.162 251.179 155.147 238.978 154.884 225.659C154.732 217.971 154.006 213.896 151.638 207.524Z" fill="url(#paint6_linear_451_748)"/>
<path d="M124.427 194.843C123.685 194.397 123.063 194.046 122.545 193.759C131.229 200.474 135.065 208.345 135.017 218.96C134.962 237.303 122.393 255.039 100.19 268.158C94.3315 271.544 88.1952 274.425 81.8478 276.771C73.8728 281.556 65.1959 285.95 58.8557 288.319C54.9161 289.747 56.4632 289.85 63.8242 288.542C79.4633 285.751 95.3177 280.121 107.504 272.959C129.706 259.84 142.275 242.127 142.331 223.761C142.426 211.128 137.011 202.38 124.427 194.843Z" fill="url(#paint7_linear_451_748)"/>
<path d="M135.033 218.96C135.081 208.345 131.245 200.474 122.56 193.759C120.264 192.491 120.168 192.778 121.707 194.557C127.505 201.503 129.363 214.183 126.189 225.883C121.763 242.176 110.063 257.424 92.4625 269.945C89.2725 272.178 85.6678 274.506 81.8876 276.763C88.235 274.418 94.3713 271.536 100.23 268.15C122.409 255.039 134.978 237.327 135.033 218.96Z" fill="url(#paint8_linear_451_748)"/>
<path d="M217.391 87.0927C200.859 78.7747 181.504 82.6426 172.795 96.591C166.901 106.017 167.284 117.797 172.699 127.909C175.044 129.504 177.261 131.099 179.327 132.694C184.279 136.538 188.729 140.988 192.573 145.941C194.415 148.333 196.297 150.965 198.387 154.099L198.515 154.29C200.11 156.683 201.577 158.884 201.848 159.155C202.382 159.745 201.728 157.305 200.373 153.27C199.854 151.73 199.232 149.952 198.53 148.022C197.677 145.63 196.704 143.078 195.667 140.406C195.077 138.867 194.471 137.328 193.873 135.78C181.91 126.338 176.535 112.182 181.751 100.69C187.11 88.9668 201.944 83.7033 217.391 87.0927Z" fill="#0A0D69"/>
<path fill-rule="evenodd" clip-rule="evenodd" d="M175.522 59.6731C184.382 58.453 193.689 59.3547 201.664 63.43C205.085 65.1685 208.196 67.4808 211.649 69.1556C214.488 70.5512 217.686 70.9029 220.421 72.5696C225.365 75.5762 226.993 80.7676 227.089 86.2942C227.138 87.6279 227.058 88.9633 226.85 90.2815C226.834 90.2734 226.818 90.2652 226.802 90.2571C226.689 90.904 226.537 91.5437 226.347 92.1722C225.94 91.2471 225.518 90.3373 225.039 89.4202C225.041 89.4211 225.043 89.4222 225.045 89.4231C222.394 84.4771 218.5 80.3062 213.746 77.3226C210.613 75.3605 207.161 73.9592 203.546 73.1829C201.018 72.0106 198.45 70.7668 195.834 69.6185C193.33 68.5105 190.546 68.1983 187.859 68.7249C187.293 68.8365 186.743 69.0439 186.177 69.2034V69.4993L187.373 69.7776C189.267 70.1189 190.97 71.1433 192.158 72.6565C179.574 74.1319 166.94 82.0281 158.997 94.9397C154.91 101.414 152.362 108.739 151.549 116.352C144.544 113.263 137.352 110.615 130.017 108.425C128.183 107.927 126.391 107.287 124.657 106.511C124.091 106.001 129.665 98.0896 135.024 91.6458C140.596 85.2557 146.736 79.3835 153.367 74.1009C155.662 72.3078 157.575 70.7692 157.578 70.7112C157.578 70.3842 150.687 71.0622 146.149 71.8597C143.839 72.2073 141.871 72.4618 141.445 72.47C142.104 72.3846 145.703 70.1253 146.149 69.9056C149.084 68.4461 152.02 67.011 155.026 65.719C161.448 62.8494 168.218 60.8323 175.163 59.721L175.522 59.6731ZM141.364 72.4651C141.375 72.4695 141.402 72.4708 141.445 72.47C141.409 72.4747 141.382 72.4743 141.364 72.4651Z" fill="url(#paint9_linear_451_748)"/>
<path d="M192.198 72.681C192.459 73.0364 192.686 73.4154 192.876 73.8129C193.395 74.8222 194.283 75.5929 195.355 75.9642C196.428 76.3355 197.602 76.2793 198.634 75.807C200.38 75.0255 202.023 74.0127 203.618 73.2152C207.206 73.9896 210.633 75.3795 213.747 77.3226C218.496 80.318 222.383 84.4996 225.023 89.4545C225.029 89.4567 225.034 89.4591 225.04 89.4613C225.55 90.3383 225.941 91.2474 226.347 92.1722C226.268 92.4194 226.188 92.6671 226.1 92.9222C226.021 93.1454 225.941 93.369 225.845 93.5922C224.689 96.5499 222.68 100.48 222.297 100.483C222.27 99.3334 222.304 98.1832 222.4 97.0375C222.694 93.4414 221.912 89.5382 218.716 87.7924C218.852 87.8668 218.989 87.94 219.125 88.016C219.412 88.1765 219.697 88.3404 219.981 88.5082C220.265 88.6759 220.548 88.8474 220.829 89.0228C221.524 89.4599 222.205 89.9167 222.874 90.392C222.205 89.9165 221.524 89.459 220.829 89.0219C220.125 88.5823 219.409 88.1701 218.688 87.7767C218.697 87.7817 218.706 87.7873 218.716 87.7924C218.678 87.7721 218.641 87.752 218.604 87.7318C218.273 87.5593 217.918 87.4092 217.535 87.2845C212.886 85.7693 207.207 86.4305 202.765 88.2806C197.709 90.3953 193.556 94.2208 191.034 99.0873C188.394 104.239 187.78 110.236 188.386 116.002C189.088 122.853 191.409 129.408 193.873 135.836C181.895 126.378 176.535 112.222 181.751 100.746C187.086 88.9673 201.944 83.7357 217.391 87.0931V87.0922L216.614 86.7103C200.257 78.8971 181.375 82.8601 172.795 96.5902C166.901 106.033 167.284 117.796 172.739 127.932C166.001 123.466 158.886 119.594 151.477 116.36C152.29 108.747 154.839 101.422 158.927 94.9476C166.981 82.0521 179.613 74.1405 192.198 72.681Z" fill="url(#paint10_linear_451_748)"/>
<defs>
<linearGradient id="paint0_linear_451_748" x1="41.1752" y1="70.7117" x2="28.3073" y2="153.649" gradientUnits="userSpaceOnUse">
<stop stop-color="#4B51FF"/>
<stop offset="1" stop-color="#2229E9"/>
</linearGradient>
<linearGradient id="paint1_linear_451_748" x1="108.16" y1="172.051" x2="174.334" y2="228.987" gradientUnits="userSpaceOnUse">
<stop stop-color="#242BF6"/>
<stop offset="1" stop-color="#0A0D69"/>
</linearGradient>
<linearGradient id="paint2_linear_451_748" x1="34.674" y1="50.3296" x2="161.79" y2="164.344" gradientUnits="userSpaceOnUse">
<stop stop-color="#242BF6"/>
<stop offset="1" stop-color="#0A0D69"/>
</linearGradient>
<linearGradient id="paint3_linear_451_748" x1="89.7513" y1="98.8219" x2="30.9015" y2="-15.7345" gradientUnits="userSpaceOnUse">
<stop stop-color="#0A0B6A"/>
<stop offset="1" stop-color="#1416D0"/>
</linearGradient>
<linearGradient id="paint4_linear_451_748" x1="60.1638" y1="45.5488" x2="130.689" y2="87.898" gradientUnits="userSpaceOnUse">
<stop stop-color="#242BF6"/>
<stop offset="1" stop-color="#4B51FF"/>
</linearGradient>
<linearGradient id="paint5_linear_451_748" x1="39.9623" y1="153.708" x2="120.981" y2="240.38" gradientUnits="userSpaceOnUse">
<stop stop-color="#0A0D69"/>
<stop offset="1" stop-color="#242BF6"/>
</linearGradient>
<linearGradient id="paint6_linear_451_748" x1="38.5541" y1="156.26" x2="127.994" y2="237.472" gradientUnits="userSpaceOnUse">
<stop stop-color="#242BF6"/>
<stop offset="1" stop-color="#0A0D69"/>
</linearGradient>
<linearGradient id="paint7_linear_451_748" x1="99.5405" y1="193.759" x2="71.9804" y2="315.904" gradientUnits="userSpaceOnUse">
<stop stop-color="#4B51FF"/>
<stop offset="1" stop-color="#2229E9"/>
</linearGradient>
<linearGradient id="paint8_linear_451_748" x1="91.1657" y1="206.69" x2="137.146" y2="233.429" gradientUnits="userSpaceOnUse">
<stop stop-color="#242BF6"/>
<stop offset="1" stop-color="#0A0D69"/>
</linearGradient>
<linearGradient id="paint9_linear_451_748" x1="175.86" y1="59.1696" x2="167.333" y2="134.908" gradientUnits="userSpaceOnUse">
<stop stop-color="#4B51FF"/>
<stop offset="1" stop-color="#2229E9"/>
</linearGradient>
<linearGradient id="paint10_linear_451_748" x1="178.841" y1="97.4795" x2="226.347" y2="95.5527" gradientUnits="userSpaceOnUse">
<stop stop-color="#0C20AD"/>
<stop offset="1" stop-color="#050D47"/>
</linearGradient>
</defs>
</svg>
