<svg width="839" height="268" viewBox="0 0 839 268" fill="none" xmlns="http://www.w3.org/2000/svg">
<path d="M212.947 159.323H220.433H227.92V224.973H212.947V159.323ZM220.433 151.145C217.592 151.145 215.25 150.377 213.408 148.842C211.565 147.229 210.643 145.156 210.643 142.622C210.643 140.088 211.565 138.054 213.408 136.518C215.25 134.905 217.592 134.099 220.433 134.099C223.351 134.099 225.693 134.905 227.459 136.518C229.302 138.054 230.223 140.088 230.223 142.622C230.223 145.156 229.302 147.229 227.459 148.842C225.693 150.377 223.351 151.145 220.433 151.145ZM244.572 159.783H259.544V183.279V224.973H244.572V181.091V159.783ZM285.459 158.171C291.602 158.171 296.823 159.399 301.123 161.857C305.423 164.314 308.686 167.846 310.913 172.453C313.216 176.983 314.368 182.473 314.368 188.923V224.973H299.395V191.341C299.395 184.508 297.783 179.363 294.558 175.908C291.41 172.376 286.764 170.61 280.622 170.61C276.398 170.61 272.674 171.57 269.45 173.489C266.301 175.332 263.844 177.943 262.078 181.321C260.389 184.7 259.544 188.654 259.544 193.184L254.246 190.305C254.937 183.548 256.703 177.789 259.544 173.029C262.385 168.268 266.033 164.621 270.486 162.087C274.94 159.476 279.931 158.171 285.459 158.171ZM362.493 218.292H356.735L383.455 159.783H399.465L367.676 224.973H350.861L319.072 159.783H335.542L362.493 218.292ZM440.42 226.585C432.819 226.585 426.062 225.165 420.149 222.324C414.237 219.406 409.592 215.375 406.213 210.23C402.835 205.086 401.145 199.097 401.145 192.263C401.145 185.506 402.72 179.594 405.868 174.526C409.093 169.381 413.508 165.389 419.113 162.548C424.795 159.63 431.283 158.171 438.578 158.171C445.872 158.171 452.168 159.822 457.466 163.123C462.841 166.348 466.987 170.917 469.905 176.829C472.823 182.742 474.282 189.691 474.282 197.676H412.893V186.274H466.795L459.309 190.535C459.079 186.235 458.042 182.55 456.199 179.478C454.433 176.407 452.015 174.065 448.943 172.453C445.949 170.763 442.378 169.919 438.232 169.919C433.855 169.919 430.016 170.802 426.714 172.568C423.49 174.334 420.956 176.829 419.113 180.054C417.27 183.202 416.349 186.965 416.349 191.341C416.349 196.179 417.424 200.363 419.574 203.896C421.8 207.428 424.91 210.153 428.903 212.073C432.972 213.916 437.771 214.837 443.3 214.837C448.291 214.837 453.397 214.069 458.618 212.534C463.839 210.921 468.446 208.695 472.439 205.854V216.68C468.446 219.751 463.571 222.17 457.812 223.936C452.13 225.702 446.333 226.585 440.42 226.585ZM554.094 205.162C554.094 209.539 552.865 213.34 550.408 216.565C547.951 219.79 544.227 222.285 539.236 224.051C534.245 225.74 527.988 226.585 520.463 226.585C512.708 226.585 505.989 225.625 500.307 223.706C494.625 221.709 490.21 218.945 487.062 215.413C483.991 211.804 482.34 207.658 482.109 202.974H497.312C497.773 205.431 499.002 207.62 500.998 209.539C503.071 211.382 505.759 212.802 509.06 213.801C512.439 214.799 516.278 215.298 520.578 215.298C526.797 215.298 531.481 214.568 534.629 213.11C537.777 211.574 539.352 209.27 539.352 206.199C539.352 204.126 538.277 202.552 536.127 201.477C534.053 200.402 530.099 199.596 524.264 199.058L511.479 197.906C504.569 197.292 499.117 196.064 495.124 194.221C491.131 192.301 488.29 189.998 486.601 187.31C484.912 184.546 484.067 181.628 484.067 178.557C484.067 174.103 485.449 170.379 488.214 167.385C490.978 164.39 494.817 162.125 499.731 160.59C504.645 158.977 510.366 158.171 516.892 158.171C523.649 158.171 529.677 159.131 534.975 161.05C540.273 162.893 544.496 165.504 547.644 168.882C550.792 172.184 552.558 176.023 552.942 180.4H537.739C537.432 178.634 536.511 176.944 534.975 175.332C533.516 173.643 531.251 172.261 528.179 171.186C525.185 170.034 521.154 169.458 516.086 169.458C510.711 169.458 506.488 170.149 503.417 171.531C500.422 172.913 498.925 174.948 498.925 177.636C498.925 179.325 499.846 180.784 501.689 182.012C503.532 183.164 506.949 183.97 511.94 184.431L528.41 185.928C535.013 186.542 540.158 187.733 543.843 189.499C547.606 191.188 550.255 193.376 551.79 196.064C553.326 198.751 554.094 201.784 554.094 205.162ZM558.301 171.301V164.506L572.237 160.935L578.456 142.737H587.21V159.783H617.501V171.301H587.21V199.519C587.21 204.971 588.361 208.81 590.665 211.036C593.045 213.186 596.884 214.261 602.182 214.261C605.561 214.261 608.555 213.916 611.166 213.225C613.777 212.457 616.272 211.382 618.653 210V222.324C616.656 223.322 613.815 224.282 610.13 225.203C606.521 226.124 602.797 226.585 598.958 226.585C592.584 226.585 587.44 225.549 583.524 223.475C579.608 221.325 576.729 218.408 574.886 214.722C573.12 210.96 572.237 206.66 572.237 201.822V171.301H558.301ZM629.558 159.323H637.045H644.531V224.973H629.558V159.323ZM637.045 151.145C634.204 151.145 631.862 150.377 630.019 148.842C628.176 147.229 627.255 145.156 627.255 142.622C627.255 140.088 628.176 138.054 630.019 136.518C631.862 134.905 634.204 134.099 637.045 134.099C639.962 134.099 642.304 134.905 644.07 136.518C645.913 138.054 646.835 140.088 646.835 142.622C646.835 145.156 645.913 147.229 644.07 148.842C642.304 150.377 639.962 151.145 637.045 151.145ZM732.361 199.289C731.593 204.663 729.482 209.424 726.027 213.57C722.571 217.64 718.156 220.826 712.781 223.13C707.407 225.433 701.417 226.585 694.814 226.585C687.289 226.585 680.647 225.165 674.889 222.324C669.207 219.406 664.753 215.375 661.528 210.23C658.303 205.086 656.691 199.135 656.691 192.378C656.691 185.621 658.303 179.67 661.528 174.526C664.753 169.381 669.207 165.389 674.889 162.548C680.647 159.63 687.289 158.171 694.814 158.171C701.417 158.171 707.407 159.323 712.781 161.626C718.156 163.93 722.571 167.155 726.027 171.301C729.482 175.37 731.593 180.131 732.361 185.583H717.273C716.198 180.668 713.626 176.829 709.557 174.065C705.487 171.301 700.573 169.919 694.814 169.919C690.207 169.919 686.176 170.84 682.721 172.683C679.265 174.449 676.578 177.021 674.658 180.4C672.816 183.701 671.894 187.694 671.894 192.378C671.894 196.985 672.816 200.978 674.658 204.356C676.578 207.735 679.265 210.345 682.721 212.188C686.176 213.954 690.207 214.837 694.814 214.837C700.65 214.837 705.602 213.417 709.672 210.576C713.741 207.735 716.275 203.972 717.273 199.289H732.361ZM795.435 187.886C795.435 182.358 793.477 178.019 789.561 174.871C785.722 171.723 779.848 170.149 771.939 170.149C767.716 170.149 763.34 170.687 758.809 171.762C754.279 172.837 749.941 174.603 745.794 177.06V165.427C750.325 162.893 754.97 161.05 759.731 159.899C764.568 158.747 769.713 158.171 775.164 158.171C782.228 158.171 788.371 159.284 793.592 161.511C798.89 163.738 802.998 167.039 805.916 171.416C808.911 175.793 810.408 181.244 810.408 187.771V224.973H795.55L795.435 187.886ZM768.484 182.588C778.082 182.281 785.607 182.934 791.058 184.546C796.587 186.159 799.62 187.464 800.157 188.462C800.695 189.383 800.964 194.72 800.964 204.471C800.964 206.391 800.196 208.618 798.66 211.152C797.124 213.685 794.936 216.143 792.095 218.523C789.254 220.826 785.837 222.746 781.844 224.282C777.852 225.817 773.398 226.585 768.484 226.585C763.109 226.585 758.272 225.702 753.972 223.936C749.749 222.17 746.409 219.636 743.952 216.334C741.495 213.033 740.266 209.117 740.266 204.587C740.266 200.056 741.495 196.179 743.952 192.954C746.486 189.652 749.864 187.157 754.087 185.467C758.387 183.701 763.186 182.742 768.484 182.588ZM777.583 193.76C769.137 193.76 763.34 194.758 760.191 196.755C757.043 198.674 755.469 201.208 755.469 204.356C755.469 207.504 757.005 210.077 760.076 212.073C763.224 213.993 767.563 214.952 773.091 214.952C779.618 214.952 784.954 213.11 789.1 209.424C793.324 205.662 795.435 201.362 795.435 196.524C792.057 194.682 786.106 193.76 777.583 193.76Z" fill="white"/>
<path d="M54.5217 113.588C59.9443 114.551 65.4226 115.168 70.9236 115.435C63.4039 114.037 56.0013 112.069 48.7797 109.549C33.9851 104.15 19.5751 94.6789 10.5019 81.6426C5.70552 75.5185 2.25776 68.4498 0.384699 60.8999C0.0798287 64.0061 -0.0440126 67.1273 0.0138033 70.2479C0.0138033 71.3262 0.0138033 72.3908 0.0756193 73.4485C0.20612 73.7508 0.350357 74.1354 0.501463 74.4994C9.08014 96.7257 32.1169 109.425 54.5217 113.588Z" fill="url(#paint0_linear_451_843)"/>
<path d="M15.1238 40.6311C18.0615 48.5193 22.4923 55.7673 28.1738 61.9782C35.5917 69.8013 43.5179 75.1999 54.9195 80.262C60.5035 82.7484 65.0711 84.28 73.1827 85.9834C64.5216 82.6659 60.064 80.3307 54.6379 76.7453C44.2322 69.8769 37.3088 63.2351 31.2852 54.2924C26.716 47.2237 23.5493 39.3421 21.9579 31.0771C20.4468 22.464 20.9324 9.51703 23.4669 2.26395C23.7671 1.54587 23.9601 0.809518 24.3549 0.0042353C24.2107 -0.0919229 22.5211 1.46034 20.591 3.53461C17.1781 6.87877 14.2345 10.6704 11.8406 14.8057C11.2225 22.4709 12.5412 33.3574 15.1238 40.6311Z" fill="#0A0B6A"/>
<path d="M162.548 168.803C154.395 137.154 118.542 130.931 90.7249 133.905C86.5627 134.351 82.3866 134.928 78.1969 135.437C79.1585 135.478 80.1269 135.526 81.0816 135.588C109.009 137.264 143.337 149.325 146.133 181.895C146.589 187.458 145.957 193.057 144.271 198.379C141.778 206.34 136.318 215.049 129.628 221.642C126.427 224.795 126.29 224.98 128.124 223.991C132.128 221.732 140.226 215.234 146.112 209.568C153.365 202.521 158.798 195.934 162.706 189.285C163.008 187.973 163.263 186.668 163.434 185.398C164.223 179.861 163.922 174.224 162.548 168.803Z" fill="url(#paint1_linear_451_843)"/>
<path d="M11.8606 14.8057C11.2424 22.4707 12.5615 33.3572 15.1233 40.6309C18.061 48.519 22.4917 55.7676 28.1731 61.9785C35.5635 69.8017 43.4902 75.2007 54.8918 80.2627C60.4552 82.749 65.0439 84.2801 73.176 85.9834C77.9358 87.8035 83.9659 89.9195 92.1252 92.708C131.577 106.081 133.865 107.021 144.855 114.274C152.698 119.494 161.6 129.337 165.46 137.105C169.883 146.055 171.813 159.517 170.069 169.387C168.842 176.391 166.344 183.111 162.698 189.216C163.001 187.904 163.255 186.6 163.427 185.329C164.209 179.809 163.909 174.188 162.541 168.782C154.388 137.133 118.535 130.91 90.718 133.884C86.5558 134.33 82.3794 134.908 78.1897 135.416C67.3856 134.915 56.3887 134.949 45.9075 131.981C35.2624 128.969 25.5598 123.296 17.7131 115.497C6.6894 104.37 0.699586 90.105 0.0744629 73.4492C0.204925 73.7514 0.349194 74.1018 0.500244 74.5C9.07896 96.726 32.1159 109.425 54.5549 113.615C59.6386 114.518 64.7716 115.118 69.926 115.409L70.9573 115.463L73.2532 115.581C78.6074 115.826 83.9422 115.874 89.303 116.006C89.3763 116.028 89.4502 116.05 89.5237 116.072C89.4523 116.05 89.3812 116.028 89.3098 116.006L86.7659 115.211C80.868 113.394 74.9129 111.729 69.0032 109.995C68.9678 109.99 68.9322 109.987 68.8967 109.982C66.1494 109.172 63.4019 108.347 60.6545 107.481C57.4402 106.465 54.2533 105.373 51.1077 104.164C24.3688 93.882 2.50592 71.7384 3.9895 41.3662C4.3222 32.9668 6.54363 24.7505 10.4875 17.3271C10.9477 16.4411 11.4004 15.6093 11.8606 14.8057Z" fill="url(#paint2_linear_451_843)"/>
<path d="M50.3979 54.436C47.0212 49.1172 45.479 44.8333 44.46 37.7589C42.9145 27.062 44.6501 19.0619 50.8383 9.61607C50.8359 9.5543 50.8348 9.52685 50.8348 9.52685C49.529 10.7309 48.2893 12.0047 47.121 13.3426C39.0671 22.1877 36.2759 29.3836 36.6908 39.9941C36.9355 46.2534 37.8843 50.1274 40.3392 55.0767C44.5328 63.5323 51.5047 69.3842 64.554 75.4384C70.1548 78.0445 101.554 90.0144 101.914 89.7116C102.273 89.4089 100.653 86.4684 98.5546 83.4367C97.3892 81.7567 96.0595 80.1969 94.5852 78.7803C88.1219 76.9709 82.555 75.4083 80.3395 74.6494C64.7697 69.3536 56.1702 63.5379 50.3979 54.436Z" fill="url(#paint3_linear_451_843)"/>
<path d="M79.185 67.9721C71.8411 63.152 65.0248 57.4109 59.6239 50.4253C52.0135 40.5498 45.9642 25.9662 49.6601 13.4285C50.0729 12.1805 50.4364 10.8781 50.8385 9.61605C44.6503 19.0619 42.9147 27.062 44.4602 37.7588C45.4792 44.8333 47.0214 49.1171 50.3981 54.436C56.1636 63.5381 64.7699 69.3536 80.3056 74.6576C82.5211 75.4164 88.0894 77.0134 94.5513 78.7885C90.0441 74.4418 84.5396 71.4883 79.185 67.9721Z" fill="url(#paint4_linear_451_843)"/>
<path d="M140.817 183.055C140.061 176.468 139.12 173.027 136.579 167.759C130.267 154.709 116.757 145.347 99.4895 142.098C78.9528 138.224 56.9395 142.49 37.2064 134.495C28.2134 130.955 20.3508 125.039 14.4582 117.379C12.9059 115.318 12.1202 114.453 11.9338 114.266C11.9338 114.314 11.9927 114.457 12.027 114.546C12.446 115.136 12.9815 116.053 13.682 117.2C18.8356 125.375 26.1115 131.998 34.7338 136.363C53.6358 146.157 75.9445 143.959 96.0415 149.729C112.897 154.571 125.48 165.155 130.542 178.728C132.602 184.222 133.2 187.725 133.337 194.36C133.564 205.817 129.271 216.339 121.111 225.014C135.576 213.702 142.63 198.886 140.817 183.055Z" fill="url(#paint5_linear_451_843)"/>
<path d="M130.597 178.728C125.535 165.156 112.952 154.572 96.0965 149.73C76.0063 143.96 53.6908 146.158 34.7888 136.364C26.1716 131.997 18.9006 125.374 13.7508 117.201C13.0639 116.054 12.446 115.164 12.027 114.546C12.2331 115.15 12.6999 116.651 13.2082 118.183C17.4391 130.876 26.5123 141.535 37.7628 148.658C50.4832 156.674 64.2063 158.322 78.9117 158.961C80.1755 159.023 81.4392 159.071 82.703 159.139C88.6236 159.435 94.5786 159.915 100.314 161.433C115.85 165.554 128.055 178.865 126.558 195.535C125.418 208.256 117.663 219.176 108.975 228.023C106.599 230.452 104.076 232.732 101.42 234.85C99.8192 235.977 98.5485 236.966 98.6722 237.062C99.0019 237.44 109.078 232.941 112.656 230.798C115.628 229.065 118.478 227.133 121.187 225.015C129.326 216.326 133.619 205.817 133.392 194.347C133.262 187.726 132.637 184.216 130.597 178.728Z" fill="url(#paint6_linear_451_843)"/>
<path d="M107.161 167.807C106.522 167.423 105.987 167.12 105.54 166.873C113.02 172.656 116.324 179.435 116.283 188.577C116.234 204.375 105.41 219.65 86.2881 230.949C81.2421 233.865 75.9572 236.346 70.4907 238.367C63.6222 242.488 56.1494 246.272 50.6889 248.312C47.2959 249.542 48.6284 249.631 54.968 248.504C68.437 246.101 82.0914 241.251 92.5864 235.084C111.708 223.785 122.533 208.53 122.581 192.712C122.663 181.833 118 174.298 107.161 167.807Z" fill="url(#paint7_linear_451_843)"/>
<path d="M116.296 188.578C116.337 179.436 113.034 172.657 105.554 166.873C103.576 165.781 103.493 166.028 104.819 167.56C109.812 173.543 111.413 184.463 108.679 194.539C104.867 208.572 94.7912 221.704 79.6325 232.487C76.8851 234.411 73.7806 236.416 70.525 238.36C75.9916 236.34 81.2764 233.858 86.3224 230.942C105.424 219.65 116.248 204.396 116.296 188.578Z" fill="url(#paint8_linear_451_843)"/>
<path d="M187.226 75.0078C172.988 67.844 156.318 71.1752 148.818 83.1881C143.742 91.3066 144.072 101.451 148.736 110.16C150.755 111.534 152.664 112.908 154.443 114.282C158.709 117.592 162.541 121.425 165.852 125.69C167.438 127.751 169.059 130.017 170.859 132.716L170.969 132.881C172.343 134.942 173.606 136.838 173.84 137.071C174.3 137.579 173.737 135.478 172.569 132.002C172.123 130.677 171.587 129.145 170.983 127.483C170.248 125.422 169.41 123.224 168.517 120.923C168.009 119.598 167.487 118.272 166.971 116.94C156.669 108.807 152.039 96.6159 156.531 86.7185C161.147 76.6219 173.922 72.0887 187.226 75.0078Z" fill="#0A0D69"/>
<path fill-rule="evenodd" clip-rule="evenodd" d="M151.167 51.3934C158.798 50.3426 166.813 51.119 173.682 54.6288C176.628 56.126 179.306 58.1181 182.28 59.5604C184.725 60.7624 187.48 61.0644 189.836 62.4999C194.094 65.0892 195.496 69.5604 195.578 74.3202C195.621 75.4689 195.552 76.6194 195.372 77.7547C195.359 77.7478 195.345 77.7411 195.331 77.7342C195.234 78.2911 195.104 78.8417 194.939 79.3827C194.589 78.5859 194.225 77.8024 193.813 77.0126C193.814 77.0131 193.815 77.014 193.816 77.0145C191.533 72.7552 188.181 69.1631 184.087 66.5936C181.388 64.9039 178.416 63.6978 175.303 63.0292C173.125 62.0195 170.913 60.9479 168.66 59.9588C166.504 59.0046 164.106 58.7357 161.792 59.1893C161.304 59.2855 160.83 59.4641 160.343 59.6014V59.8553L161.373 60.0956C163.004 60.3894 164.471 61.2718 165.494 62.5751C154.656 63.8457 143.777 70.6457 136.936 81.7655C133.415 87.3412 131.22 93.6509 130.521 100.208C124.488 97.5474 118.294 95.2672 111.976 93.3807C110.397 92.9518 108.853 92.4007 107.359 91.7323C106.872 91.2926 111.674 84.4792 116.289 78.9296C121.088 73.4261 126.375 68.3678 132.086 63.8182C134.064 62.2728 135.713 60.9474 135.713 60.8993C135.71 60.6181 129.777 61.2019 125.87 61.8885C123.91 62.1834 122.236 62.3997 121.836 62.4129C122.446 62.3046 125.489 60.3933 125.87 60.2059C128.398 58.949 130.925 57.7122 133.515 56.5995C139.045 54.128 144.876 52.3915 150.857 51.4344L151.167 51.3934Z" fill="url(#paint9_linear_451_843)"/>
<path d="M165.529 62.5962C165.753 62.9024 165.949 63.2293 166.113 63.5718C166.56 64.4408 167.324 65.1045 168.247 65.4243C169.171 65.7441 170.183 65.6954 171.072 65.2886C172.576 64.6155 173.991 63.743 175.365 63.0562C178.454 63.7231 181.406 64.9198 184.087 66.5933C188.177 69.1728 191.524 72.7745 193.798 77.0415C193.803 77.0435 193.808 77.0454 193.813 77.0474C194.252 77.8027 194.59 78.5857 194.94 79.3823L194.727 80.0288C194.658 80.2211 194.59 80.4136 194.507 80.606C193.511 83.1541 191.78 86.5405 191.451 86.5405C191.427 85.5506 191.457 84.5595 191.539 83.5728C191.794 80.4609 191.114 77.0812 188.328 75.5884C188.458 75.6596 188.589 75.7304 188.719 75.8032C188.966 75.9414 189.212 76.0826 189.456 76.2271C189.701 76.3715 189.945 76.5193 190.187 76.6704C190.386 76.7958 190.585 76.9222 190.782 77.0513C190.585 76.9221 190.386 76.7949 190.187 76.6694C189.703 76.3672 189.213 76.0787 188.719 75.8022C188.574 75.721 188.427 75.6432 188.282 75.564C187.994 75.4131 187.684 75.282 187.35 75.1733C183.346 73.8683 178.455 74.4383 174.629 76.0317C170.274 77.853 166.699 81.1474 164.527 85.3384C162.253 89.7753 161.724 94.94 162.246 99.9058C162.85 105.806 164.849 111.452 166.971 116.988C156.655 108.842 152.04 96.6507 156.532 86.7671C161.127 76.6224 173.923 72.1167 187.227 75.0083L187.226 75.0073L186.557 74.6792C172.47 67.9499 156.208 71.363 148.818 83.188C143.742 91.32 144.072 101.451 148.77 110.18C142.967 106.334 136.839 103 130.458 100.214C131.158 93.6576 133.353 87.3486 136.873 81.7729C143.811 70.6668 154.69 63.8532 165.529 62.5962ZM188.282 75.564C188.297 75.572 188.312 75.5802 188.328 75.5884C188.312 75.5801 188.297 75.5722 188.282 75.564Z" fill="url(#paint10_linear_451_843)"/>
<defs>
<linearGradient id="paint0_linear_451_843" x1="35.4618" y1="60.8999" x2="24.3794" y2="132.329" gradientUnits="userSpaceOnUse">
<stop stop-color="#4B51FF"/>
<stop offset="1" stop-color="#2229E9"/>
</linearGradient>
<linearGradient id="paint1_linear_451_843" x1="93.1521" y1="148.178" x2="150.144" y2="197.213" gradientUnits="userSpaceOnUse">
<stop stop-color="#242BF6"/>
<stop offset="1" stop-color="#0A0D69"/>
</linearGradient>
<linearGradient id="paint2_linear_451_843" x1="29.8627" y1="43.3459" x2="139.34" y2="141.54" gradientUnits="userSpaceOnUse">
<stop stop-color="#242BF6"/>
<stop offset="1" stop-color="#0A0D69"/>
</linearGradient>
<linearGradient id="paint3_linear_451_843" x1="77.2975" y1="85.1095" x2="26.6136" y2="-13.5512" gradientUnits="userSpaceOnUse">
<stop stop-color="#0A0B6A"/>
<stop offset="1" stop-color="#1416D0"/>
</linearGradient>
<linearGradient id="paint4_linear_451_843" x1="51.8155" y1="39.2286" x2="112.555" y2="75.7014" gradientUnits="userSpaceOnUse">
<stop stop-color="#242BF6"/>
<stop offset="1" stop-color="#4B51FF"/>
</linearGradient>
<linearGradient id="paint5_linear_451_843" x1="34.4172" y1="132.379" x2="104.194" y2="207.025" gradientUnits="userSpaceOnUse">
<stop stop-color="#0A0D69"/>
<stop offset="1" stop-color="#242BF6"/>
</linearGradient>
<linearGradient id="paint6_linear_451_843" x1="33.2044" y1="134.578" x2="110.233" y2="204.521" gradientUnits="userSpaceOnUse">
<stop stop-color="#242BF6"/>
<stop offset="1" stop-color="#0A0D69"/>
</linearGradient>
<linearGradient id="paint7_linear_451_843" x1="85.7283" y1="166.873" x2="61.9924" y2="272.07" gradientUnits="userSpaceOnUse">
<stop stop-color="#4B51FF"/>
<stop offset="1" stop-color="#2229E9"/>
</linearGradient>
<linearGradient id="paint8_linear_451_843" x1="78.5156" y1="178.01" x2="118.116" y2="201.039" gradientUnits="userSpaceOnUse">
<stop stop-color="#242BF6"/>
<stop offset="1" stop-color="#0A0D69"/>
</linearGradient>
<linearGradient id="paint9_linear_451_843" x1="151.458" y1="50.9597" x2="144.114" y2="116.189" gradientUnits="userSpaceOnUse">
<stop stop-color="#4B51FF"/>
<stop offset="1" stop-color="#2229E9"/>
</linearGradient>
<linearGradient id="paint10_linear_451_843" x1="154.025" y1="83.9535" x2="194.94" y2="82.2941" gradientUnits="userSpaceOnUse">
<stop stop-color="#0C20AD"/>
<stop offset="1" stop-color="#050D47"/>
</linearGradient>
</defs>
</svg>
