<svg width="373" height="476" viewBox="0 0 373 476" fill="none" xmlns="http://www.w3.org/2000/svg">
<path d="M103.918 216.497C114.254 218.333 124.695 219.509 135.18 220.019C120.848 217.353 106.738 213.603 92.9739 208.8C64.7755 198.51 37.3101 180.457 20.0166 155.61C10.8747 143.938 4.30328 130.465 0.733235 116.074C0.152153 121.995 -0.0838878 127.944 0.026309 133.892C0.026309 135.947 0.026309 137.976 0.14413 139.992C0.392863 140.568 0.667778 141.301 0.955785 141.995C17.3067 184.358 61.2146 208.564 103.918 216.497Z" fill="url(#paint0_linear_451_784)"/>
<path d="M28.8257 77.4426C34.425 92.4776 42.8702 106.292 53.699 118.13C67.8375 133.041 82.9448 143.331 104.676 152.979C115.319 157.718 124.025 160.637 139.486 163.884C122.978 157.561 114.482 153.11 104.139 146.276C84.3063 133.185 71.1104 120.526 59.6294 103.481C50.9205 90.0082 44.8849 74.9858 41.8515 59.2327C38.9714 42.8163 39.8971 18.1394 44.7277 4.31508C45.2998 2.94642 45.6677 1.54294 46.4203 0.00807245C46.1454 -0.175205 42.925 2.78341 39.2463 6.73696C32.7413 13.1109 27.1307 20.3377 22.5681 28.2196C21.3899 42.8294 23.9034 63.579 28.8257 77.4426Z" fill="#0A0B6A"/>
<path d="M309.816 321.738C294.277 261.414 225.941 249.553 172.921 255.222C164.988 256.072 157.029 257.172 149.043 258.141C150.876 258.219 152.722 258.311 154.541 258.429C207.77 261.623 273.2 284.611 278.528 346.69C279.398 357.294 278.193 367.966 274.98 378.109C270.228 393.281 259.821 409.881 247.07 422.449C240.969 428.458 240.708 428.811 244.203 426.926C251.835 422.619 267.27 410.235 278.489 399.434C292.313 386.003 302.668 373.448 310.117 360.776C310.693 358.276 311.178 355.788 311.505 353.366C313.008 342.814 312.434 332.07 309.816 321.738Z" fill="url(#paint1_linear_451_784)"/>
<path d="M22.6067 28.2192C21.4285 42.829 23.9424 63.5793 28.8255 77.4429C34.4247 92.4778 42.8697 106.292 53.6985 118.13C67.7846 133.041 82.892 143.331 104.623 152.979C115.227 157.718 123.972 160.638 139.472 163.884C148.544 167.353 160.039 171.386 175.591 176.701C250.787 202.189 255.146 203.983 276.092 217.807C291.042 227.756 308.008 246.516 315.366 261.322C323.796 278.38 327.475 304.039 324.15 322.851C321.812 336.2 317.051 349.009 310.103 360.645C310.679 358.145 311.163 355.658 311.491 353.236C312.982 342.714 312.408 332.001 309.802 321.699C294.263 261.375 225.927 249.514 172.908 255.182C164.974 256.033 157.014 257.132 149.029 258.101C128.436 257.145 107.477 257.211 87.5003 251.556C67.2107 245.815 48.7168 235.002 33.761 220.137C12.7496 198.929 1.33319 171.739 0.141876 139.993C0.390605 140.569 0.666375 141.236 0.954376 141.996C17.3053 184.359 61.2128 208.565 103.982 216.55C113.671 218.271 123.454 219.412 133.279 219.968L135.243 220.072L137.433 220.19C148.373 220.75 159.264 220.837 170.211 221.107C170.439 221.177 170.667 221.245 170.896 221.315C170.672 221.246 170.448 221.175 170.224 221.106C157.404 217.036 144.404 213.431 131.518 209.65C131.451 209.641 131.384 209.633 131.317 209.625C126.08 208.08 120.843 206.509 115.607 204.86C109.48 202.922 103.406 200.841 97.4104 198.537C46.4464 178.939 4.77707 136.733 7.60477 78.8433C8.23893 62.8339 12.4713 47.1729 19.9886 33.0239C20.8656 31.3352 21.7296 29.7509 22.6067 28.2192Z" fill="url(#paint2_linear_451_784)"/>
<path d="M96.0582 103.755C89.6222 93.6173 86.6827 85.4522 84.7406 71.9684C81.7949 51.5802 85.1029 36.332 96.8976 18.3284C96.893 18.2106 96.8909 18.1583 96.8909 18.1583C94.4021 20.4533 92.0392 22.8811 89.8124 25.4311C74.4618 42.2899 69.1418 56.0052 69.9325 76.2288C70.3989 88.1589 72.2073 95.5427 76.8864 104.976C84.8794 121.093 98.1678 132.246 123.04 143.785C133.715 148.753 193.562 171.567 194.247 170.99C194.932 170.413 191.844 164.809 187.845 159.03C185.623 155.828 183.089 152.855 180.279 150.155C167.96 146.706 157.349 143.728 153.127 142.282C123.451 132.188 107.06 121.103 96.0582 103.755Z" fill="url(#paint3_linear_451_784)"/>
<path d="M150.926 129.555C136.929 120.368 123.937 109.425 113.643 96.1106C99.1375 77.2879 87.6074 49.4916 94.6518 25.5947C95.4386 23.216 96.1315 20.7338 96.8979 18.3283C85.1032 36.3319 81.7952 51.5801 84.7409 71.9683C86.683 85.4521 89.6225 93.6172 96.0585 103.755C107.047 121.104 123.451 132.188 153.062 142.297C157.285 143.743 167.898 146.787 180.214 150.171C171.624 141.886 161.132 136.256 150.926 129.555Z" fill="url(#paint4_linear_451_784)"/>
<path d="M268.396 348.902C266.956 336.347 265.163 329.788 260.319 319.747C248.288 294.874 222.538 277.031 189.626 270.839C150.484 263.455 108.526 271.585 70.9153 256.347C53.7747 249.6 38.7885 238.324 27.5572 223.723C24.5986 219.796 23.1011 218.146 22.7457 217.791C22.7457 217.883 22.858 218.154 22.9234 218.324C23.722 219.45 24.7426 221.197 26.0779 223.383C35.9005 238.965 49.7684 251.589 66.2025 259.908C102.229 278.576 144.75 274.386 183.055 285.383C215.18 294.612 239.164 314.786 248.812 340.654C252.739 351.127 253.878 357.804 254.14 370.45C254.572 392.286 246.39 412.342 230.838 428.876C258.408 407.315 271.852 379.077 268.396 348.902Z" fill="url(#paint5_linear_451_784)"/>
<path d="M248.917 340.655C239.268 314.787 215.285 294.613 183.159 285.384C144.868 274.387 102.334 278.577 66.3073 259.909C49.8829 251.586 36.0244 238.963 26.2089 223.384C24.8998 221.198 23.7221 219.502 22.9235 218.324C23.3162 219.476 24.206 222.337 25.1747 225.256C33.2389 249.449 50.5324 269.766 71.9758 283.342C96.2207 298.619 122.377 301.761 150.405 302.979C152.814 303.096 155.223 303.188 157.632 303.319C168.916 303.882 180.266 304.798 191.197 307.691C220.81 315.546 244.073 340.917 241.219 372.689C239.046 396.934 224.266 417.749 207.706 434.611C203.178 439.24 198.368 443.586 193.305 447.623C190.255 449.77 187.833 451.656 188.069 451.839C188.697 452.559 207.902 443.984 214.722 439.9C220.386 436.598 225.818 432.915 230.982 428.877C246.495 412.316 254.677 392.287 254.245 370.425C253.996 357.805 252.805 351.115 248.917 340.655Z" fill="url(#paint6_linear_451_784)"/>
<path d="M204.249 319.84C203.031 319.107 202.01 318.531 201.159 318.059C215.416 329.082 221.712 342.003 221.634 359.428C221.542 389.537 200.911 418.652 164.465 440.187C154.847 445.745 144.774 450.475 134.355 454.326C121.264 462.18 107.02 469.394 96.6129 473.282C90.1458 475.625 92.6855 475.795 104.769 473.648C130.441 469.066 156.466 459.824 176.469 448.068C212.915 426.533 233.547 397.458 233.639 367.308C233.796 346.572 224.907 332.211 204.249 319.84Z" fill="url(#paint7_linear_451_784)"/>
<path d="M221.66 359.428C221.739 342.003 215.442 329.082 201.185 318.059C197.415 315.978 197.258 316.449 199.785 319.369C209.302 330.771 212.352 351.586 207.142 370.791C199.876 397.536 180.671 422.567 151.779 443.12C146.543 446.785 140.625 450.608 134.42 454.313C144.84 450.462 154.912 445.732 164.53 440.174C200.937 418.652 221.568 389.577 221.66 359.428Z" fill="url(#paint8_linear_451_784)"/>
<path d="M356.853 142.964C329.715 129.31 297.942 135.659 283.647 158.556C273.972 174.03 274.601 193.365 283.489 209.965C287.338 212.583 290.978 215.202 294.368 217.82C302.498 224.13 309.803 231.435 316.113 239.564C319.137 243.492 322.226 247.812 325.656 252.957L325.866 253.271C328.484 257.198 330.893 260.811 331.338 261.257C332.215 262.225 331.141 258.219 328.916 251.595C328.065 249.069 327.044 246.149 325.892 242.981C324.491 239.054 322.894 234.865 321.192 230.479C320.223 227.952 319.228 225.426 318.247 222.886C298.61 207.386 289.786 184.149 298.348 165.285C307.145 146.041 331.495 137.401 356.853 142.964Z" fill="#0A0D69"/>
<path fill-rule="evenodd" clip-rule="evenodd" d="M288.123 97.9557C302.667 95.9528 317.945 97.4321 331.036 104.122C336.652 106.976 341.758 110.772 347.426 113.521C352.087 115.812 357.337 116.388 361.827 119.124C369.943 124.059 372.614 132.582 372.771 141.654C372.852 143.843 372.72 146.036 372.378 148.2C372.352 148.187 372.325 148.174 372.299 148.161C372.114 149.222 371.866 150.271 371.553 151.302C370.886 149.784 370.191 148.291 369.406 146.786C369.409 146.787 369.413 146.789 369.417 146.791C365.064 138.671 358.673 131.824 350.869 126.926C345.725 123.706 340.059 121.407 334.126 120.132C329.976 118.208 325.76 116.165 321.466 114.28C317.356 112.461 312.786 111.95 308.375 112.814C307.445 112.997 306.542 113.337 305.613 113.599V114.084L307.577 114.542C310.685 115.102 313.48 116.784 315.431 119.268C294.773 121.69 274.037 134.65 260.998 155.844C254.288 166.472 250.105 178.497 248.771 190.995C237.272 185.924 225.467 181.578 213.424 177.982C210.415 177.165 207.474 176.114 204.628 174.84C203.698 174.003 212.849 161.016 221.646 150.438C230.793 139.949 240.87 130.309 251.756 121.637C255.524 118.694 258.664 116.168 258.668 116.074C258.668 115.537 247.357 116.65 239.908 117.959C236.136 118.526 232.919 118.943 232.197 118.961C233.307 118.797 239.178 115.111 239.908 114.752C244.725 112.356 249.543 109.999 254.478 107.879C265.02 103.168 276.133 99.858 287.534 98.0338L288.123 97.9557ZM232.053 118.954C232.071 118.961 232.12 118.962 232.197 118.961C232.132 118.97 232.084 118.97 232.053 118.954Z" fill="url(#paint9_linear_451_784)"/>
<path d="M315.497 119.308C315.925 119.891 316.298 120.513 316.61 121.166C317.462 122.823 318.919 124.088 320.68 124.697C322.44 125.307 324.368 125.214 326.062 124.438C328.929 123.156 331.626 121.494 334.244 120.185C340.133 121.456 345.759 123.736 350.87 126.926C358.666 131.843 365.046 138.708 369.381 146.842C369.389 146.845 369.398 146.849 369.407 146.853C370.245 148.292 370.887 149.784 371.555 151.303C371.424 151.708 371.292 152.115 371.148 152.534V152.535C371.017 152.902 370.886 153.268 370.729 153.635C368.831 158.491 365.533 164.944 364.904 164.945C364.86 163.059 364.916 161.171 365.074 159.29C365.611 152.718 363.961 145.518 357.089 143.279C349.457 140.792 340.135 141.879 332.844 144.916C324.543 148.387 317.727 154.666 313.587 162.654C309.254 171.111 308.245 180.956 309.24 190.421C310.392 201.666 314.202 212.427 318.247 222.979C298.584 207.452 289.787 184.215 298.348 165.377C307.107 146.042 331.495 137.454 356.852 142.965C357.808 143.449 358.757 143.954 359.698 144.48C359.934 144.612 360.169 144.745 360.403 144.88C361.105 145.284 361.803 145.701 362.495 146.133C362.875 146.372 363.253 146.615 363.629 146.861C364.004 147.108 364.377 147.357 364.748 147.61C365.489 148.117 366.221 148.636 366.942 149.17C365.499 148.102 364.015 147.088 362.495 146.132C360.649 144.98 358.764 143.933 356.852 142.964C356.986 142.993 357.12 143.024 357.254 143.054C357.12 143.023 356.986 142.993 356.852 142.963C329.714 129.309 297.955 135.658 283.646 158.555C273.972 174.054 274.6 193.364 283.555 210.003C272.493 202.672 260.815 196.316 248.653 191.008C249.987 178.51 254.171 166.485 260.881 155.857C274.103 134.689 294.839 121.703 315.497 119.308Z" fill="url(#paint10_linear_451_784)"/>
<defs>
<linearGradient id="paint0_linear_451_784" x1="67.59" y1="116.074" x2="46.467" y2="252.218" gradientUnits="userSpaceOnUse">
<stop stop-color="#4B51FF"/>
<stop offset="1" stop-color="#2229E9"/>
</linearGradient>
<linearGradient id="paint1_linear_451_784" x1="177.548" y1="282.426" x2="286.173" y2="375.887" gradientUnits="userSpaceOnUse">
<stop stop-color="#242BF6"/>
<stop offset="1" stop-color="#0A0D69"/>
</linearGradient>
<linearGradient id="paint2_linear_451_784" x1="56.918" y1="82.6169" x2="265.582" y2="269.775" gradientUnits="userSpaceOnUse">
<stop stop-color="#242BF6"/>
<stop offset="1" stop-color="#0A0D69"/>
</linearGradient>
<linearGradient id="paint3_linear_451_784" x1="147.329" y1="162.218" x2="50.7254" y2="-25.8283" gradientUnits="userSpaceOnUse">
<stop stop-color="#0A0B6A"/>
<stop offset="1" stop-color="#1416D0"/>
</linearGradient>
<linearGradient id="paint4_linear_451_784" x1="98.76" y1="74.7697" x2="214.529" y2="144.287" gradientUnits="userSpaceOnUse">
<stop stop-color="#242BF6"/>
<stop offset="1" stop-color="#4B51FF"/>
</linearGradient>
<linearGradient id="paint5_linear_451_784" x1="65.599" y1="252.315" x2="198.592" y2="394.589" gradientUnits="userSpaceOnUse">
<stop stop-color="#0A0D69"/>
<stop offset="1" stop-color="#242BF6"/>
</linearGradient>
<linearGradient id="paint6_linear_451_784" x1="63.2874" y1="256.505" x2="210.104" y2="389.816" gradientUnits="userSpaceOnUse">
<stop stop-color="#242BF6"/>
<stop offset="1" stop-color="#0A0D69"/>
</linearGradient>
<linearGradient id="paint7_linear_451_784" x1="163.398" y1="318.059" x2="118.157" y2="518.564" gradientUnits="userSpaceOnUse">
<stop stop-color="#4B51FF"/>
<stop offset="1" stop-color="#2229E9"/>
</linearGradient>
<linearGradient id="paint8_linear_451_784" x1="149.65" y1="339.285" x2="225.128" y2="383.179" gradientUnits="userSpaceOnUse">
<stop stop-color="#242BF6"/>
<stop offset="1" stop-color="#0A0D69"/>
</linearGradient>
<linearGradient id="paint9_linear_451_784" x1="288.678" y1="97.1289" x2="274.681" y2="221.455" gradientUnits="userSpaceOnUse">
<stop stop-color="#4B51FF"/>
<stop offset="1" stop-color="#2229E9"/>
</linearGradient>
<linearGradient id="paint10_linear_451_784" x1="293.571" y1="160.015" x2="371.555" y2="156.852" gradientUnits="userSpaceOnUse">
<stop stop-color="#0C20AD"/>
<stop offset="1" stop-color="#050D47"/>
</linearGradient>
</defs>
</svg>
