<svg width="583" height="168" viewBox="0 0 583 168" fill="none" xmlns="http://www.w3.org/2000/svg">
<path d="M126.651 141.412V101.06H135.776V136.778L132.996 136.136L160.587 101.06H172.564V141.412H163.438V105.195L166.29 105.908L138.343 141.412H126.651ZM182.418 101.06H191.615V141.412H182.418V101.06ZM216.711 101.06H225.907V141.412H216.711V101.06ZM187.623 117.386H220.56V124.516H187.623V117.386ZM234.822 141.412V121.236V101.06H264.053C267.95 101.06 270.992 101.963 273.178 103.769C275.412 105.575 276.529 108.071 276.529 111.255C276.529 114.202 275.412 116.578 273.178 118.384C270.992 120.143 267.926 121.189 263.981 121.521L264.694 119.81C269.352 119.905 272.917 120.856 275.388 122.662C277.86 124.468 279.096 127.011 279.096 130.29C279.096 133.76 277.836 136.493 275.317 138.489C272.845 140.438 269.4 141.412 264.979 141.412H234.822ZM243.805 139.131L240.241 134.996H262.627C265.146 134.996 266.952 134.52 268.045 133.57C269.186 132.572 269.756 131.193 269.756 129.435C269.756 127.866 269.114 126.559 267.831 125.514C266.595 124.468 264.504 123.945 261.557 123.945H240.241V117.957H260.203C262.627 117.957 264.385 117.481 265.479 116.531C266.619 115.533 267.19 114.249 267.19 112.681C267.19 111.16 266.69 109.924 265.692 108.974C264.742 107.976 263.126 107.476 260.844 107.476H240.312L243.805 103.413V121.236V139.131ZM308.603 142.41C303.898 142.41 299.715 141.531 296.056 139.772C292.396 137.966 289.52 135.471 287.429 132.287C285.338 129.102 284.292 125.395 284.292 121.165C284.292 116.982 285.266 113.323 287.215 110.186C289.211 107.001 291.944 104.53 295.414 102.771C298.931 100.965 302.947 100.062 307.462 100.062C311.978 100.062 315.875 101.084 319.155 103.128C322.482 105.124 325.048 107.952 326.854 111.611C328.66 115.271 329.563 119.573 329.563 124.516H291.564V117.458H324.929L320.295 120.095C320.153 117.434 319.511 115.152 318.37 113.251C317.277 111.35 315.78 109.9 313.879 108.902C312.025 107.857 309.815 107.334 307.249 107.334C304.539 107.334 302.163 107.88 300.119 108.974C298.123 110.067 296.555 111.611 295.414 113.608C294.273 115.556 293.703 117.885 293.703 120.594C293.703 123.589 294.368 126.179 295.699 128.365C297.077 130.552 299.002 132.239 301.474 133.427C303.993 134.568 306.963 135.138 310.386 135.138C313.475 135.138 316.636 134.663 319.868 133.712C323.099 132.714 325.951 131.336 328.423 129.577V136.279C325.951 138.18 322.933 139.677 319.368 140.77C315.851 141.864 312.263 142.41 308.603 142.41ZM381.747 125.514C381.272 128.841 379.965 131.788 377.826 134.354C375.687 136.873 372.955 138.846 369.627 140.271C366.3 141.697 362.593 142.41 358.506 142.41C353.848 142.41 349.737 141.531 346.172 139.772C342.655 137.966 339.898 135.471 337.902 132.287C335.906 129.102 334.908 125.419 334.908 121.236C334.908 117.054 335.906 113.37 337.902 110.186C339.898 107.001 342.655 104.53 346.172 102.771C349.737 100.965 353.848 100.062 358.506 100.062C362.593 100.062 366.3 100.775 369.627 102.201C372.955 103.627 375.687 105.623 377.826 108.189C379.965 110.708 381.272 113.655 381.747 117.03H372.408C371.743 113.988 370.15 111.611 367.631 109.9C365.112 108.189 362.07 107.334 358.506 107.334C355.654 107.334 353.159 107.904 351.02 109.045C348.881 110.138 347.218 111.73 346.029 113.822C344.889 115.865 344.318 118.337 344.318 121.236C344.318 124.088 344.889 126.559 346.029 128.651C347.218 130.742 348.881 132.358 351.02 133.499C353.159 134.592 355.654 135.138 358.506 135.138C362.118 135.138 365.184 134.259 367.703 132.5C370.222 130.742 371.79 128.413 372.408 125.514H381.747ZM399.8 104.268H409.068V141.412H399.8V104.268ZM383.046 101.06H425.822V108.332H383.046V101.06ZM431.667 141.412V101.06H440.792V136.778L438.012 136.136L465.602 101.06H477.579V141.412H468.454V105.195L471.306 105.908L443.359 141.412H431.667ZM487.434 141.412V101.06H496.702V141.412H487.434ZM520.657 141.412L502.976 120.808L519.659 101.06H530.567L513.527 120.666L531.85 141.412H520.657ZM492.639 117.386H511.317V124.516H492.639V117.386ZM567.009 118.456C567.009 115.034 565.797 112.348 563.373 110.4C560.996 108.451 557.36 107.476 552.465 107.476C549.851 107.476 547.142 107.809 544.337 108.475C541.533 109.14 538.848 110.233 536.281 111.754V104.553C539.085 102.985 541.961 101.844 544.908 101.131C547.902 100.418 551.086 100.062 554.461 100.062C558.834 100.062 562.636 100.751 565.868 102.129C569.147 103.508 571.69 105.552 573.496 108.261C575.35 110.97 576.277 114.344 576.277 118.384V141.412H567.08L567.009 118.456ZM550.326 115.176C556.267 114.986 560.925 115.39 564.299 116.388C567.722 117.386 569.599 118.194 569.932 118.812C570.264 119.382 570.431 122.686 570.431 128.722C570.431 129.91 569.955 131.288 569.005 132.857C568.054 134.425 566.7 135.946 564.941 137.42C563.183 138.846 561.068 140.034 558.596 140.984C556.125 141.935 553.368 142.41 550.326 142.41C546.999 142.41 544.005 141.864 541.343 140.77C538.729 139.677 536.661 138.109 535.141 136.065C533.62 134.021 532.859 131.597 532.859 128.793C532.859 125.989 533.62 123.589 535.141 121.593C536.709 119.549 538.8 118.004 541.414 116.958C544.076 115.865 547.046 115.271 550.326 115.176ZM555.958 122.092C550.73 122.092 547.142 122.709 545.193 123.945C543.244 125.133 542.27 126.702 542.27 128.651C542.27 130.599 543.22 132.192 545.122 133.427C547.07 134.615 549.756 135.21 553.178 135.21C557.218 135.21 560.521 134.069 563.087 131.788C565.702 129.459 567.009 126.797 567.009 123.803C564.917 122.662 561.234 122.092 555.958 122.092Z" fill="white"/>
<g clip-path="url(#clip0_440_444)">
<path fill-rule="evenodd" clip-rule="evenodd" d="M66.703 107.538C65.8594 106.563 65.912 106.405 67.1708 107.1C67.1791 107.107 67.1878 107.113 67.1961 107.12C67.4734 107.274 67.8036 107.461 68.1942 107.696C75.0922 111.827 78.0601 116.622 78.0077 123.547C77.9771 133.614 71.088 143.323 58.9178 150.514C52.2383 154.44 43.5478 157.526 34.9754 159.056C30.9406 159.773 30.0923 159.716 32.2518 158.933C35.727 157.635 40.4831 155.227 44.8543 152.604C44.8673 152.599 44.8804 152.593 44.8934 152.589C46.9592 151.355 48.9289 150.082 50.6727 148.861C60.3205 141.998 66.7338 133.64 69.16 124.709C70.8998 118.296 69.881 111.345 66.703 107.538ZM7.54673 73.65C7.44631 73.4141 8.2063 74.2889 9.19419 75.6002C12.9445 80.4757 17.9491 84.2409 23.6727 86.4938C36.2319 91.5822 50.2427 88.8672 63.3133 91.3327C74.3032 93.4004 82.9024 99.3589 86.9198 107.665C88.5371 111.017 89.1362 113.208 89.617 117.4C90.763 127.406 86.3411 136.772 77.2635 143.953C77.2166 144.003 77.1712 144.056 77.1239 144.106C75.3996 145.455 73.5853 146.684 71.6942 147.787C69.4174 149.15 63.0089 152.012 62.7948 151.774C62.7161 151.713 63.5244 151.084 64.5428 150.367C66.2335 149.019 67.8395 147.567 69.3514 146.021C74.8813 140.391 79.8171 133.44 80.5428 125.344C81.4958 114.735 73.727 106.262 63.8387 103.639C60.1887 102.673 56.3987 102.367 52.6307 102.179C51.8264 102.136 51.022 102.105 50.2176 102.066C40.8583 101.66 32.1241 100.61 24.0282 95.5084C16.8679 90.9753 11.0931 84.1912 8.40025 76.1129C8.1062 75.2268 7.82552 74.3442 7.67857 73.902C7.6492 73.8597 7.62145 73.8188 7.59458 73.7809C7.57275 73.7243 7.54673 73.6806 7.54673 73.65ZM15.493 0.896141C15.4671 1.39081 15.3559 1.87759 15.1649 2.33462C13.5518 6.95089 13.0059 15.1917 13.9676 20.6735C14.9806 25.9336 16.9961 30.9501 19.9042 35.4489C23.7378 41.1403 28.144 45.3676 34.7665 49.7389C38.2199 52.0208 41.0577 53.5074 46.5702 55.6188C41.4075 54.5347 38.5001 53.5597 34.9461 51.9772C27.6896 48.7555 22.6448 45.3195 17.9237 40.3405C16.5675 38.858 15.3232 37.2825 14.1991 35.6276L14.7704 36.4489C15.7402 37.8054 16.7927 39.1052 17.9227 40.3405C22.6263 45.3194 27.6712 48.7555 34.9276 51.9772C38.4683 53.5596 41.3889 54.5347 46.5643 55.6188C49.5937 56.7772 53.4326 58.1233 58.6258 59.8981C83.7353 68.4093 85.1911 69.0084 92.1854 73.6247C97.1775 76.9469 102.843 83.2109 105.3 88.1549C108.115 93.8508 109.343 102.419 108.233 108.701C107.455 113.145 105.871 117.41 103.562 121.286C103.556 121.312 103.552 121.339 103.546 121.366C101.058 125.597 97.6005 129.79 92.9842 134.275C89.2379 137.881 84.0835 142.017 81.535 143.455C80.3681 144.084 80.4561 143.966 82.493 141.96C86.7506 137.763 90.2255 132.22 91.8124 127.154C92.885 123.767 93.2873 120.203 92.9969 116.662C91.2175 95.9327 69.3698 88.2568 51.5956 87.1901C50.9881 87.1507 50.3715 87.1196 49.7596 87.0934C52.4259 86.77 55.0835 86.4029 57.7323 86.1188C75.3706 84.233 98.0851 88.157 103.386 108.105C98.0916 88.1455 75.3716 84.2189 57.7293 86.1051C55.0804 86.3893 52.4221 86.7563 49.7557 87.0797C42.8796 86.7607 35.8805 86.7826 29.2098 84.8942C22.435 82.9769 16.2594 79.3663 11.2655 74.403C4.24983 67.3217 0.437217 58.242 0.0389184 47.6422L0.0379418 47.6403C-0.00139428 46.9672 -0.00112068 46.2894 -0.00112068 45.6032C-0.0379181 43.6171 0.0411702 41.6299 0.235207 39.653C1.42732 44.4581 3.62102 48.9574 6.67368 52.8551C6.72924 52.9349 6.78743 53.013 6.84361 53.0924C13.6621 61.7369 24.2619 67.2323 35.5936 69.5368C37.6962 69.9651 39.8119 70.3152 41.9364 70.6168L43.7508 70.8649C42.0327 70.3577 40.3137 69.8426 38.5956 69.3014C36.5499 68.6545 34.5214 67.9594 32.5194 67.1901C15.5015 60.646 1.58715 46.5516 2.53111 27.2213C2.74285 21.8758 4.15601 16.6459 6.66587 11.9215C6.9538 11.3672 7.23841 10.8458 7.52622 10.3424C7.5269 10.334 7.52749 10.3255 7.52818 10.317C9.05175 7.68506 10.9253 5.27163 13.0975 3.14321C14.3251 1.82389 15.4001 0.836231 15.493 0.896141ZM96.2079 33.6051C101.064 32.9364 106.166 33.43 110.537 35.6637C112.412 36.6167 114.118 37.8844 116.011 38.8024C117.567 39.5672 119.32 39.7599 120.819 40.6735C123.529 42.3216 124.421 45.1676 124.473 48.1969C124.5 48.9278 124.457 49.6601 124.343 50.3825C124.335 50.3784 124.326 50.3748 124.318 50.3708C124.257 50.7237 124.174 51.0728 124.07 51.4157L124.071 51.4176C124.027 51.553 123.983 51.689 123.935 51.8288C123.028 51.0447 122.061 50.3299 121.046 49.6911C120.43 49.3067 119.801 48.9558 119.163 48.6325H119.16C116.677 47.3833 114.078 46.636 111.515 46.3659C114.076 46.6364 116.672 47.3832 119.152 48.6305C119.154 48.631 119.157 48.632 119.159 48.6325C119.379 48.7441 119.598 48.8609 119.816 48.9791C119.637 48.8864 119.445 48.8052 119.238 48.7379C116.69 47.9074 113.577 48.2699 111.142 49.2838C108.371 50.443 106.094 52.5402 104.712 55.2077C103.265 58.0316 102.928 61.3187 103.261 64.4791C103.644 68.2196 104.907 71.8 106.252 75.3102C106.256 75.3134 106.26 75.3168 106.264 75.32C106.591 76.168 106.923 77.0124 107.247 77.8561C107.815 79.3205 108.349 80.7195 108.816 82.0309C109.201 83.0886 109.542 84.0633 109.826 84.9069C110.569 87.1179 110.928 88.4554 110.636 88.1334C110.487 87.9848 109.682 86.7779 108.807 85.4665L108.738 85.362C107.593 83.644 106.561 82.2007 105.552 80.8893C103.445 78.1746 101.005 75.7355 98.2899 73.6286C97.1577 72.7543 95.9422 71.8798 94.6571 71.0055C94.6558 71.0032 94.6544 71.001 94.6532 70.9987C90.9688 68.5594 87.0798 66.4431 83.0301 64.6754C83.0308 64.6693 83.0314 64.6631 83.0321 64.6569C79.2033 62.9702 75.2725 61.5248 71.2635 60.3278C70.2587 60.0548 69.2764 59.7043 68.326 59.279C68.0157 58.9992 71.0712 54.6625 74.0086 51.1305C77.0628 47.628 80.4286 44.4089 84.0633 41.5133C85.3175 40.5335 86.364 39.6916 86.3719 39.6549C86.3706 39.4759 82.5942 39.8477 80.1073 40.2848C78.8556 40.4731 77.7869 40.6103 77.537 40.6178C77.9192 40.5537 79.8638 39.3333 80.1073 39.2135C81.7159 38.4136 83.3246 37.6267 84.9725 36.9186C88.4925 35.3456 92.2036 34.2406 96.0106 33.6315L96.2079 33.6051ZM62.0682 76.4948C64.9638 77.5609 67.8104 78.7591 70.5985 80.0856C73.0682 81.3139 75.3588 82.5074 75.6913 82.7829C75.7394 82.8228 75.7611 82.8523 75.7655 82.8698C75.8092 82.8676 75.7952 82.8377 75.7137 82.778C75.3848 82.537 73.1075 81.3097 70.6209 80.0817C67.8253 78.7562 64.9714 77.5587 62.0682 76.4948ZM16.8407 66.7057C22.361 69.9073 28.572 72.0579 34.7137 73.2047C38.1648 73.8177 41.6522 74.2103 45.1532 74.3805C52.793 75.916 60.5019 77.0754 67.8749 79.6276C60.4963 77.06 52.7763 75.9008 45.1258 74.3639C49.0249 74.5868 52.9289 74.6301 56.828 74.7262C56.8474 74.7322 56.8672 74.7378 56.8866 74.7438C64.3337 74.9277 71.7592 75.3061 79.0624 77.4625C80.3309 77.8389 81.096 77.9583 80.8163 77.7995C81.0323 77.9558 80.2678 77.8098 79.0379 77.445C71.7246 75.2856 64.2885 74.9098 56.8309 74.7262L56.8299 74.7252C52.932 74.6291 49.0296 74.5858 45.1317 74.3629C44.6824 74.2796 44.234 74.1919 43.786 74.1022C44.2333 74.192 44.6811 74.2795 45.1297 74.3629C41.6286 74.1927 38.1415 73.8001 34.6903 73.1872C28.56 72.0483 22.3565 69.9031 16.8407 66.7057ZM14.3407 65.152C14.5262 65.2757 14.7128 65.3981 14.9002 65.5192C14.7127 65.3981 14.5262 65.2757 14.3407 65.152ZM118.449 48.4899C110.239 46.9394 102.475 49.8384 99.619 56.0856C98.7667 57.9635 98.4312 59.9713 98.5526 62.0016C98.4363 59.9811 98.7742 57.9843 99.6229 56.1168C102.466 49.8409 110.24 46.9562 118.449 48.4899ZM33.3563 6.58852C29.186 12.4418 27.8836 17.4866 28.6004 24.3278C29.0725 28.8521 29.9467 31.6153 31.9618 35.0817C33.6726 38.0278 35.8482 40.475 38.8006 42.653C35.8499 40.4743 33.6745 38.0271 31.9657 35.0807C29.9504 31.6142 29.0765 28.8512 28.6043 24.3268C27.8874 17.4855 29.1899 12.4409 33.3602 6.58755C33.1705 7.40221 32.9281 8.20369 32.6346 8.98696C29.9724 16.8687 33.3381 26.2896 37.9325 32.7594C41.1935 37.3363 45.3858 41.157 49.9364 44.4049C53.2489 46.7704 56.6705 48.7831 59.4266 51.652C59.4374 51.6555 59.4481 51.6593 59.4588 51.6627C60.3613 52.6003 61.1677 53.6259 61.867 54.7233C63.126 56.7035 64.0836 58.6139 63.8475 58.7975C63.6003 58.9761 43.9401 50.5871 40.4432 48.7907C32.2948 44.6159 28.0055 40.7207 25.5487 35.2389C24.1107 32.0305 23.6034 29.5429 23.6034 25.5563C23.6034 18.7981 25.5584 14.2908 30.9002 8.86587C31.6764 8.04427 32.4961 7.26502 33.3563 6.53188C33.3563 6.53188 33.3563 6.54932 33.3563 6.58852ZM119.894 49.0211C120.281 49.2328 120.666 49.4551 121.044 49.6911C122.059 50.3298 123.025 51.0448 123.932 51.8288C123.889 51.951 123.845 52.0737 123.793 52.1959C123.159 53.8169 122.058 55.9702 121.848 55.9723C121.833 55.3424 121.851 54.7116 121.904 54.0836C122.065 52.1162 121.638 49.9806 119.894 49.0211ZM117.763 43.6754C120.093 45.2812 122.008 47.4233 123.343 49.9264C123.346 49.9279 123.35 49.9299 123.353 49.9313C123.397 50.006 123.437 50.0823 123.477 50.1579L123.352 49.9118C122.013 47.4131 120.095 45.2755 117.763 43.6754ZM104.37 38.4293C103.902 38.4298 103.433 38.4752 102.97 38.5661C102.659 38.6273 102.358 38.7414 102.048 38.8288V38.9909L102.703 39.1432C103.741 39.3302 104.675 39.892 105.326 40.7213C99.8748 41.3605 94.4085 44.1985 90.2059 48.8532C94.4378 44.2047 99.9018 41.365 105.35 40.7331C105.493 40.9279 105.618 41.1362 105.723 41.3541C106.007 41.9071 106.493 42.3293 107.081 42.5329C107.669 42.7362 108.313 42.7058 108.879 42.4469C109.836 42.0186 110.736 41.463 111.61 41.026C113.14 41.3562 114.616 41.8915 116 42.6139C114.604 41.8825 113.114 41.3422 111.569 41.0104C111.564 41.0078 111.558 41.0051 111.553 41.0026C109.513 40.5688 107.415 40.4731 105.345 40.7204C104.693 39.891 103.759 39.3292 102.722 39.1422L102.066 38.9899V38.8278C102.376 38.7404 102.678 38.6273 102.988 38.5661C103.446 38.4764 103.908 38.431 104.37 38.4293ZM109.561 46.2516C110.064 46.2572 110.57 46.2819 111.078 46.3249C110.57 46.282 110.064 46.2571 109.561 46.2516ZM11.6434 31.3327C11.8494 31.7315 12.0644 32.1254 12.2831 32.5172C12.0644 32.1254 11.8494 31.7315 11.6434 31.3327ZM9.61704 26.7536C9.73393 27.0674 9.85507 27.3795 9.97935 27.6901L9.61802 26.7536C9.5852 26.6611 9.55351 26.5675 9.52134 26.4733C9.55322 26.5674 9.58453 26.6612 9.61704 26.7536Z" fill="white"/>
</g>
<defs>
<clipPath id="clip0_440_444">
<rect width="124.451" height="159.559" fill="white"/>
</clipPath>
</defs>
</svg>
